<mxfile host="Electron" agent="Mozilla/5.0 (Windows NT 10.0; Win64; x64) AppleWebKit/537.36 (KHTML, like Gecko) draw.io/24.7.8 Chrome/128.0.6613.36 Electron/32.0.1 Safari/537.36" version="24.7.8" pages="4">
  <diagram id="9Nt8GTICYehEesQw2iDX" name="care rental">
    <mxGraphModel dx="1050" dy="629" grid="1" gridSize="10" guides="1" tooltips="1" connect="1" arrows="1" fold="1" page="1" pageScale="1" pageWidth="850" pageHeight="1100" math="0" shadow="0">
      <root>
        <mxCell id="0" />
        <mxCell id="1" parent="0" />
        <mxCell id="KXiXMz8kZ8tg4A6hz5RU-1" value="Car" style="rounded=0;whiteSpace=wrap;html=1;" vertex="1" parent="1">
          <mxGeometry x="300" y="170" width="80" height="30" as="geometry" />
        </mxCell>
        <mxCell id="KXiXMz8kZ8tg4A6hz5RU-2" value="&lt;u&gt;id&lt;/u&gt;" style="ellipse;whiteSpace=wrap;html=1;" vertex="1" parent="1">
          <mxGeometry x="280" y="130" width="40" height="20" as="geometry" />
        </mxCell>
        <mxCell id="KXiXMz8kZ8tg4A6hz5RU-3" value="&lt;font style=&quot;font-size: 8px;&quot;&gt;model year&lt;/font&gt;" style="ellipse;whiteSpace=wrap;html=1;" vertex="1" parent="1">
          <mxGeometry x="410" y="80" width="50" height="20" as="geometry" />
        </mxCell>
        <mxCell id="KXiXMz8kZ8tg4A6hz5RU-4" value="&lt;font style=&quot;font-size: 8px;&quot;&gt;brand&lt;/font&gt;" style="ellipse;whiteSpace=wrap;html=1;" vertex="1" parent="1">
          <mxGeometry x="360" y="80" width="40" height="20" as="geometry" />
        </mxCell>
        <mxCell id="KXiXMz8kZ8tg4A6hz5RU-5" value="&lt;font style=&quot;font-size: 8px;&quot;&gt;model name&amp;nbsp;&lt;/font&gt;" style="ellipse;whiteSpace=wrap;html=1;" vertex="1" parent="1">
          <mxGeometry x="290" y="80" width="60" height="20" as="geometry" />
        </mxCell>
        <mxCell id="KXiXMz8kZ8tg4A6hz5RU-6" value="model" style="ellipse;whiteSpace=wrap;html=1;" vertex="1" parent="1">
          <mxGeometry x="330" y="130" width="40" height="20" as="geometry" />
        </mxCell>
        <mxCell id="KXiXMz8kZ8tg4A6hz5RU-7" value="" style="endArrow=none;html=1;rounded=0;exitX=0.5;exitY=0;exitDx=0;exitDy=0;entryX=0.5;entryY=1;entryDx=0;entryDy=0;" edge="1" parent="1" source="KXiXMz8kZ8tg4A6hz5RU-6" target="KXiXMz8kZ8tg4A6hz5RU-5">
          <mxGeometry width="50" height="50" relative="1" as="geometry">
            <mxPoint x="550" y="210" as="sourcePoint" />
            <mxPoint x="600" y="160" as="targetPoint" />
          </mxGeometry>
        </mxCell>
        <mxCell id="KXiXMz8kZ8tg4A6hz5RU-8" value="" style="endArrow=none;html=1;rounded=0;entryX=0.5;entryY=1;entryDx=0;entryDy=0;exitX=0.585;exitY=0.016;exitDx=0;exitDy=0;exitPerimeter=0;" edge="1" parent="1" source="KXiXMz8kZ8tg4A6hz5RU-6" target="KXiXMz8kZ8tg4A6hz5RU-4">
          <mxGeometry width="50" height="50" relative="1" as="geometry">
            <mxPoint x="350" y="128" as="sourcePoint" />
            <mxPoint x="600" y="160" as="targetPoint" />
          </mxGeometry>
        </mxCell>
        <mxCell id="KXiXMz8kZ8tg4A6hz5RU-9" value="" style="endArrow=none;html=1;rounded=0;exitX=0.731;exitY=0.055;exitDx=0;exitDy=0;exitPerimeter=0;entryX=0.5;entryY=1;entryDx=0;entryDy=0;" edge="1" parent="1" source="KXiXMz8kZ8tg4A6hz5RU-6" target="KXiXMz8kZ8tg4A6hz5RU-3">
          <mxGeometry width="50" height="50" relative="1" as="geometry">
            <mxPoint x="550" y="210" as="sourcePoint" />
            <mxPoint x="600" y="160" as="targetPoint" />
          </mxGeometry>
        </mxCell>
        <mxCell id="KXiXMz8kZ8tg4A6hz5RU-10" value="" style="endArrow=none;html=1;rounded=0;exitX=0.5;exitY=0;exitDx=0;exitDy=0;entryX=0.653;entryY=0.991;entryDx=0;entryDy=0;entryPerimeter=0;" edge="1" parent="1" source="KXiXMz8kZ8tg4A6hz5RU-1" target="KXiXMz8kZ8tg4A6hz5RU-6">
          <mxGeometry width="50" height="50" relative="1" as="geometry">
            <mxPoint x="550" y="210" as="sourcePoint" />
            <mxPoint x="600" y="160" as="targetPoint" />
          </mxGeometry>
        </mxCell>
        <mxCell id="KXiXMz8kZ8tg4A6hz5RU-11" value="" style="endArrow=none;html=1;rounded=0;exitX=0.125;exitY=0;exitDx=0;exitDy=0;exitPerimeter=0;entryX=0.5;entryY=1;entryDx=0;entryDy=0;" edge="1" parent="1" source="KXiXMz8kZ8tg4A6hz5RU-1" target="KXiXMz8kZ8tg4A6hz5RU-2">
          <mxGeometry width="50" height="50" relative="1" as="geometry">
            <mxPoint x="550" y="210" as="sourcePoint" />
            <mxPoint x="600" y="160" as="targetPoint" />
          </mxGeometry>
        </mxCell>
        <mxCell id="KXiXMz8kZ8tg4A6hz5RU-12" value="&lt;font style=&quot;font-size: 8px;&quot;&gt;A copy of valid license&lt;/font&gt;" style="ellipse;whiteSpace=wrap;html=1;" vertex="1" parent="1">
          <mxGeometry x="390" y="125" width="90" height="30" as="geometry" />
        </mxCell>
        <mxCell id="KXiXMz8kZ8tg4A6hz5RU-13" value="" style="endArrow=none;html=1;rounded=0;exitX=1.019;exitY=0.368;exitDx=0;exitDy=0;exitPerimeter=0;entryX=0.543;entryY=0.997;entryDx=0;entryDy=0;entryPerimeter=0;" edge="1" parent="1" source="KXiXMz8kZ8tg4A6hz5RU-1" target="KXiXMz8kZ8tg4A6hz5RU-12">
          <mxGeometry width="50" height="50" relative="1" as="geometry">
            <mxPoint x="550" y="220" as="sourcePoint" />
            <mxPoint x="600" y="170" as="targetPoint" />
          </mxGeometry>
        </mxCell>
        <mxCell id="KXiXMz8kZ8tg4A6hz5RU-14" value="&lt;font style=&quot;font-size: 8px;&quot;&gt;Rent amount&lt;/font&gt;" style="ellipse;whiteSpace=wrap;html=1;" vertex="1" parent="1">
          <mxGeometry x="410" y="180" width="80" height="20" as="geometry" />
        </mxCell>
        <mxCell id="KXiXMz8kZ8tg4A6hz5RU-15" value="" style="endArrow=none;html=1;rounded=0;exitX=1;exitY=0.75;exitDx=0;exitDy=0;" edge="1" parent="1" source="KXiXMz8kZ8tg4A6hz5RU-1">
          <mxGeometry width="50" height="50" relative="1" as="geometry">
            <mxPoint x="550" y="220" as="sourcePoint" />
            <mxPoint x="410" y="190" as="targetPoint" />
          </mxGeometry>
        </mxCell>
        <mxCell id="KXiXMz8kZ8tg4A6hz5RU-16" value="&lt;font style=&quot;font-size: 8px;&quot;&gt;Car status&lt;/font&gt;" style="ellipse;whiteSpace=wrap;html=1;" vertex="1" parent="1">
          <mxGeometry x="450" y="160" width="50" height="20" as="geometry" />
        </mxCell>
        <mxCell id="KXiXMz8kZ8tg4A6hz5RU-17" value="" style="endArrow=none;html=1;rounded=0;exitX=1;exitY=0.5;exitDx=0;exitDy=0;entryX=0;entryY=0.5;entryDx=0;entryDy=0;" edge="1" parent="1" source="KXiXMz8kZ8tg4A6hz5RU-1" target="KXiXMz8kZ8tg4A6hz5RU-16">
          <mxGeometry width="50" height="50" relative="1" as="geometry">
            <mxPoint x="550" y="230" as="sourcePoint" />
            <mxPoint x="600" y="180" as="targetPoint" />
          </mxGeometry>
        </mxCell>
        <mxCell id="KXiXMz8kZ8tg4A6hz5RU-18" value="&lt;font style=&quot;font-size: 8px;&quot;&gt;Office&lt;/font&gt;" style="rounded=0;whiteSpace=wrap;html=1;" vertex="1" parent="1">
          <mxGeometry x="610" y="170" width="40" height="20" as="geometry" />
        </mxCell>
        <mxCell id="KXiXMz8kZ8tg4A6hz5RU-19" value="&lt;font style=&quot;font-size: 8px;&quot;&gt;&lt;u&gt;ID&lt;/u&gt;&lt;/font&gt;" style="ellipse;whiteSpace=wrap;html=1;" vertex="1" parent="1">
          <mxGeometry x="570" y="130" width="40" height="25" as="geometry" />
        </mxCell>
        <mxCell id="KXiXMz8kZ8tg4A6hz5RU-20" value="&lt;font style=&quot;font-size: 8px;&quot;&gt;Contact no&lt;/font&gt;" style="ellipse;whiteSpace=wrap;html=1;" vertex="1" parent="1">
          <mxGeometry x="655" y="140" width="50" height="20" as="geometry" />
        </mxCell>
        <mxCell id="KXiXMz8kZ8tg4A6hz5RU-21" value="&lt;font style=&quot;font-size: 8px;&quot;&gt;address&lt;/font&gt;" style="ellipse;whiteSpace=wrap;html=1;" vertex="1" parent="1">
          <mxGeometry x="615" y="125" width="40" height="20" as="geometry" />
        </mxCell>
        <mxCell id="KXiXMz8kZ8tg4A6hz5RU-22" value="" style="endArrow=none;html=1;rounded=0;entryX=0;entryY=0;entryDx=0;entryDy=0;exitX=0.5;exitY=1;exitDx=0;exitDy=0;" edge="1" parent="1" source="KXiXMz8kZ8tg4A6hz5RU-19" target="KXiXMz8kZ8tg4A6hz5RU-18">
          <mxGeometry width="50" height="50" relative="1" as="geometry">
            <mxPoint x="550" y="240" as="sourcePoint" />
            <mxPoint x="600" y="190" as="targetPoint" />
          </mxGeometry>
        </mxCell>
        <mxCell id="KXiXMz8kZ8tg4A6hz5RU-23" value="" style="endArrow=none;html=1;rounded=0;entryX=0.5;entryY=0;entryDx=0;entryDy=0;exitX=0.5;exitY=1;exitDx=0;exitDy=0;" edge="1" parent="1" source="KXiXMz8kZ8tg4A6hz5RU-21" target="KXiXMz8kZ8tg4A6hz5RU-18">
          <mxGeometry width="50" height="50" relative="1" as="geometry">
            <mxPoint x="550" y="240" as="sourcePoint" />
            <mxPoint x="600" y="190" as="targetPoint" />
          </mxGeometry>
        </mxCell>
        <mxCell id="KXiXMz8kZ8tg4A6hz5RU-24" value="" style="endArrow=none;html=1;rounded=0;entryX=1;entryY=0;entryDx=0;entryDy=0;exitX=0.43;exitY=0.96;exitDx=0;exitDy=0;exitPerimeter=0;" edge="1" parent="1" source="KXiXMz8kZ8tg4A6hz5RU-20" target="KXiXMz8kZ8tg4A6hz5RU-18">
          <mxGeometry width="50" height="50" relative="1" as="geometry">
            <mxPoint x="550" y="240" as="sourcePoint" />
            <mxPoint x="600" y="190" as="targetPoint" />
          </mxGeometry>
        </mxCell>
        <mxCell id="KXiXMz8kZ8tg4A6hz5RU-25" value="&lt;font style=&quot;font-size: 8px;&quot;&gt;Owner&lt;/font&gt;" style="rounded=0;whiteSpace=wrap;html=1;" vertex="1" parent="1">
          <mxGeometry x="550" y="270" width="50" height="20" as="geometry" />
        </mxCell>
        <mxCell id="KXiXMz8kZ8tg4A6hz5RU-26" value="&lt;font style=&quot;font-size: 8px;&quot;&gt;full name&lt;/font&gt;" style="ellipse;whiteSpace=wrap;html=1;" vertex="1" parent="1">
          <mxGeometry x="470" y="270" width="50" height="20" as="geometry" />
        </mxCell>
        <mxCell id="KXiXMz8kZ8tg4A6hz5RU-27" value="&lt;font style=&quot;font-size: 8px;&quot;&gt;fname&lt;/font&gt;" style="ellipse;whiteSpace=wrap;html=1;" vertex="1" parent="1">
          <mxGeometry x="420" y="260" width="30" height="20" as="geometry" />
        </mxCell>
        <mxCell id="KXiXMz8kZ8tg4A6hz5RU-28" value="&lt;font style=&quot;font-size: 8px;&quot;&gt;Lname&lt;/font&gt;" style="ellipse;whiteSpace=wrap;html=1;" vertex="1" parent="1">
          <mxGeometry x="420" y="290" width="30" height="20" as="geometry" />
        </mxCell>
        <mxCell id="KXiXMz8kZ8tg4A6hz5RU-29" value="&lt;font style=&quot;font-size: 8px;&quot;&gt;&lt;u&gt;National ID&lt;/u&gt;&lt;/font&gt;" style="ellipse;whiteSpace=wrap;html=1;" vertex="1" parent="1">
          <mxGeometry x="470" y="300" width="50" height="20" as="geometry" />
        </mxCell>
        <mxCell id="KXiXMz8kZ8tg4A6hz5RU-30" value="&lt;font style=&quot;font-size: 8px;&quot;&gt;Bank no&lt;/font&gt;" style="ellipse;whiteSpace=wrap;html=1;" vertex="1" parent="1">
          <mxGeometry x="470" y="330" width="50" height="20" as="geometry" />
        </mxCell>
        <mxCell id="KXiXMz8kZ8tg4A6hz5RU-31" value="" style="endArrow=none;html=1;rounded=0;exitX=0;exitY=0.5;exitDx=0;exitDy=0;entryX=1;entryY=0.5;entryDx=0;entryDy=0;" edge="1" parent="1" source="KXiXMz8kZ8tg4A6hz5RU-26" target="KXiXMz8kZ8tg4A6hz5RU-27">
          <mxGeometry width="50" height="50" relative="1" as="geometry">
            <mxPoint x="610" y="320" as="sourcePoint" />
            <mxPoint x="449.99999999999727" y="260" as="targetPoint" />
          </mxGeometry>
        </mxCell>
        <mxCell id="KXiXMz8kZ8tg4A6hz5RU-32" value="" style="endArrow=none;html=1;rounded=0;exitX=0;exitY=1;exitDx=0;exitDy=0;entryX=1;entryY=1;entryDx=0;entryDy=0;" edge="1" parent="1" source="KXiXMz8kZ8tg4A6hz5RU-26">
          <mxGeometry width="50" height="50" relative="1" as="geometry">
            <mxPoint x="610" y="320" as="sourcePoint" />
            <mxPoint x="445.60660171779034" y="297.0710678118602" as="targetPoint" />
          </mxGeometry>
        </mxCell>
        <mxCell id="KXiXMz8kZ8tg4A6hz5RU-33" value="" style="endArrow=none;html=1;rounded=0;exitX=1;exitY=0.5;exitDx=0;exitDy=0;entryX=0;entryY=0.5;entryDx=0;entryDy=0;" edge="1" parent="1" source="KXiXMz8kZ8tg4A6hz5RU-26" target="KXiXMz8kZ8tg4A6hz5RU-25">
          <mxGeometry width="50" height="50" relative="1" as="geometry">
            <mxPoint x="550" y="320" as="sourcePoint" />
            <mxPoint x="600" y="270" as="targetPoint" />
          </mxGeometry>
        </mxCell>
        <mxCell id="KXiXMz8kZ8tg4A6hz5RU-34" value="" style="endArrow=none;html=1;rounded=0;exitX=0.999;exitY=0.335;exitDx=0;exitDy=0;exitPerimeter=0;entryX=0;entryY=1;entryDx=0;entryDy=0;" edge="1" parent="1" source="KXiXMz8kZ8tg4A6hz5RU-29" target="KXiXMz8kZ8tg4A6hz5RU-25">
          <mxGeometry width="50" height="50" relative="1" as="geometry">
            <mxPoint x="550" y="320" as="sourcePoint" />
            <mxPoint x="600" y="270" as="targetPoint" />
          </mxGeometry>
        </mxCell>
        <mxCell id="KXiXMz8kZ8tg4A6hz5RU-35" value="" style="endArrow=none;html=1;rounded=0;exitX=1;exitY=0.5;exitDx=0;exitDy=0;entryX=0.5;entryY=1;entryDx=0;entryDy=0;" edge="1" parent="1" source="KXiXMz8kZ8tg4A6hz5RU-30" target="KXiXMz8kZ8tg4A6hz5RU-25">
          <mxGeometry width="50" height="50" relative="1" as="geometry">
            <mxPoint x="550" y="320" as="sourcePoint" />
            <mxPoint x="600" y="270" as="targetPoint" />
          </mxGeometry>
        </mxCell>
        <mxCell id="KXiXMz8kZ8tg4A6hz5RU-36" value="&lt;font style=&quot;font-size: 8px;&quot;&gt;Payment Method&lt;/font&gt;" style="ellipse;whiteSpace=wrap;html=1;" vertex="1" parent="1">
          <mxGeometry x="215" y="145" width="50" height="30" as="geometry" />
        </mxCell>
        <mxCell id="KXiXMz8kZ8tg4A6hz5RU-37" value="&lt;font style=&quot;font-size: 8px;&quot;&gt;duration&lt;/font&gt;" style="ellipse;whiteSpace=wrap;html=1;" vertex="1" parent="1">
          <mxGeometry x="185" y="197.5" width="40" height="25" as="geometry" />
        </mxCell>
        <mxCell id="KXiXMz8kZ8tg4A6hz5RU-38" value="&lt;font style=&quot;font-size: 8px;&quot;&gt;start date&lt;/font&gt;" style="ellipse;whiteSpace=wrap;html=1;" vertex="1" parent="1">
          <mxGeometry x="185" y="177.5" width="45" height="15" as="geometry" />
        </mxCell>
        <mxCell id="KXiXMz8kZ8tg4A6hz5RU-39" value="&lt;font style=&quot;font-size: 8px;&quot;&gt;Apply&lt;/font&gt;" style="rhombus;whiteSpace=wrap;html=1;" vertex="1" parent="1">
          <mxGeometry x="550" y="210" width="50" height="30" as="geometry" />
        </mxCell>
        <mxCell id="KXiXMz8kZ8tg4A6hz5RU-41" value="" style="endArrow=none;html=1;rounded=0;exitX=1;exitY=0;exitDx=0;exitDy=0;entryX=0;entryY=1;entryDx=0;entryDy=0;" edge="1" parent="1" source="KXiXMz8kZ8tg4A6hz5RU-39" target="KXiXMz8kZ8tg4A6hz5RU-18">
          <mxGeometry width="50" height="50" relative="1" as="geometry">
            <mxPoint x="550" y="290" as="sourcePoint" />
            <mxPoint x="600" y="240" as="targetPoint" />
          </mxGeometry>
        </mxCell>
        <mxCell id="KXiXMz8kZ8tg4A6hz5RU-42" value="M" style="text;html=1;align=center;verticalAlign=middle;whiteSpace=wrap;rounded=0;" vertex="1" parent="1">
          <mxGeometry x="530" y="240" width="20" height="10" as="geometry" />
        </mxCell>
        <mxCell id="KXiXMz8kZ8tg4A6hz5RU-43" value="1" style="text;html=1;align=center;verticalAlign=middle;whiteSpace=wrap;rounded=0;" vertex="1" parent="1">
          <mxGeometry x="580" y="190" width="10" height="10" as="geometry" />
        </mxCell>
        <mxCell id="KXiXMz8kZ8tg4A6hz5RU-44" value="&lt;font style=&quot;font-size: 8px;&quot;&gt;provide&lt;/font&gt;" style="rhombus;whiteSpace=wrap;html=1;" vertex="1" parent="1">
          <mxGeometry x="420" y="210" width="50" height="40" as="geometry" />
        </mxCell>
        <mxCell id="KXiXMz8kZ8tg4A6hz5RU-47" value="M" style="text;html=1;align=center;verticalAlign=middle;whiteSpace=wrap;rounded=0;" vertex="1" parent="1">
          <mxGeometry x="410" y="210" width="20" height="10" as="geometry" />
        </mxCell>
        <mxCell id="KXiXMz8kZ8tg4A6hz5RU-48" value="1" style="text;html=1;align=center;verticalAlign=middle;whiteSpace=wrap;rounded=0;" vertex="1" parent="1">
          <mxGeometry x="465" y="230" width="20" height="10" as="geometry" />
        </mxCell>
        <mxCell id="KXiXMz8kZ8tg4A6hz5RU-51" value="&lt;font style=&quot;font-size: 8px;&quot;&gt;tenant&lt;/font&gt;" style="rounded=0;whiteSpace=wrap;html=1;" vertex="1" parent="1">
          <mxGeometry x="237.5" y="250" width="40" height="20" as="geometry" />
        </mxCell>
        <mxCell id="KXiXMz8kZ8tg4A6hz5RU-52" value="&lt;u&gt;&lt;font style=&quot;font-size: 8px;&quot;&gt;national id&lt;/font&gt;&lt;/u&gt;" style="ellipse;whiteSpace=wrap;html=1;" vertex="1" parent="1">
          <mxGeometry x="270" y="280" width="40" height="30" as="geometry" />
        </mxCell>
        <mxCell id="KXiXMz8kZ8tg4A6hz5RU-53" value="&lt;font style=&quot;font-size: 8px;&quot;&gt;mobil num&lt;/font&gt;" style="ellipse;whiteSpace=wrap;html=1;" vertex="1" parent="1">
          <mxGeometry x="270" y="330" width="50" height="20" as="geometry" />
        </mxCell>
        <mxCell id="KXiXMz8kZ8tg4A6hz5RU-54" value="&lt;font style=&quot;font-size: 8px;&quot;&gt;license&lt;/font&gt;" style="ellipse;whiteSpace=wrap;html=1;" vertex="1" parent="1">
          <mxGeometry x="230" y="310" width="40" height="20" as="geometry" />
        </mxCell>
        <mxCell id="KXiXMz8kZ8tg4A6hz5RU-55" value="" style="endArrow=none;html=1;rounded=0;entryX=0.614;entryY=1.021;entryDx=0;entryDy=0;exitX=0;exitY=0.5;exitDx=0;exitDy=0;entryPerimeter=0;" edge="1" parent="1" source="KXiXMz8kZ8tg4A6hz5RU-52" target="KXiXMz8kZ8tg4A6hz5RU-51">
          <mxGeometry width="50" height="50" relative="1" as="geometry">
            <mxPoint x="147.5" y="290" as="sourcePoint" />
            <mxPoint x="197.5" y="240" as="targetPoint" />
          </mxGeometry>
        </mxCell>
        <mxCell id="KXiXMz8kZ8tg4A6hz5RU-56" value="" style="endArrow=none;html=1;rounded=0;exitX=0.5;exitY=1;exitDx=0;exitDy=0;entryX=0.009;entryY=0.25;entryDx=0;entryDy=0;entryPerimeter=0;" edge="1" parent="1" source="KXiXMz8kZ8tg4A6hz5RU-51" target="KXiXMz8kZ8tg4A6hz5RU-53">
          <mxGeometry width="50" height="50" relative="1" as="geometry">
            <mxPoint x="147.5" y="290" as="sourcePoint" />
            <mxPoint x="197.5" y="240" as="targetPoint" />
          </mxGeometry>
        </mxCell>
        <mxCell id="KXiXMz8kZ8tg4A6hz5RU-57" value="" style="endArrow=none;html=1;rounded=0;exitX=0.25;exitY=1;exitDx=0;exitDy=0;entryX=0.065;entryY=0.382;entryDx=0;entryDy=0;entryPerimeter=0;" edge="1" parent="1" source="KXiXMz8kZ8tg4A6hz5RU-51" target="KXiXMz8kZ8tg4A6hz5RU-54">
          <mxGeometry width="50" height="50" relative="1" as="geometry">
            <mxPoint x="147.5" y="290" as="sourcePoint" />
            <mxPoint x="197.5" y="240" as="targetPoint" />
          </mxGeometry>
        </mxCell>
        <mxCell id="KXiXMz8kZ8tg4A6hz5RU-58" value="&lt;font style=&quot;font-size: 8px;&quot;&gt;Rent&lt;/font&gt;" style="rhombus;whiteSpace=wrap;html=1;" vertex="1" parent="1">
          <mxGeometry x="250" y="200" width="40" height="30" as="geometry" />
        </mxCell>
        <mxCell id="KXiXMz8kZ8tg4A6hz5RU-59" value="" style="endArrow=none;html=1;rounded=0;exitX=0;exitY=0.5;exitDx=0;exitDy=0;entryX=0.5;entryY=0;entryDx=0;entryDy=0;" edge="1" parent="1" source="KXiXMz8kZ8tg4A6hz5RU-58" target="KXiXMz8kZ8tg4A6hz5RU-51">
          <mxGeometry width="50" height="50" relative="1" as="geometry">
            <mxPoint x="470" y="290" as="sourcePoint" />
            <mxPoint x="520" y="240" as="targetPoint" />
          </mxGeometry>
        </mxCell>
        <mxCell id="KXiXMz8kZ8tg4A6hz5RU-60" value="" style="endArrow=none;html=1;rounded=0;exitX=0.595;exitY=-0.072;exitDx=0;exitDy=0;entryX=0.126;entryY=0.656;entryDx=0;entryDy=0;entryPerimeter=0;exitPerimeter=0;" edge="1" parent="1" source="KXiXMz8kZ8tg4A6hz5RU-51" target="KXiXMz8kZ8tg4A6hz5RU-58">
          <mxGeometry width="50" height="50" relative="1" as="geometry">
            <mxPoint x="470" y="290" as="sourcePoint" />
            <mxPoint x="520" y="240" as="targetPoint" />
          </mxGeometry>
        </mxCell>
        <mxCell id="KXiXMz8kZ8tg4A6hz5RU-61" value="" style="endArrow=none;html=1;rounded=0;exitX=0.5;exitY=0;exitDx=0;exitDy=0;entryX=-0.016;entryY=0.381;entryDx=0;entryDy=0;entryPerimeter=0;" edge="1" parent="1" source="KXiXMz8kZ8tg4A6hz5RU-58" target="KXiXMz8kZ8tg4A6hz5RU-1">
          <mxGeometry width="50" height="50" relative="1" as="geometry">
            <mxPoint x="470" y="290" as="sourcePoint" />
            <mxPoint x="520" y="240" as="targetPoint" />
          </mxGeometry>
        </mxCell>
        <mxCell id="KXiXMz8kZ8tg4A6hz5RU-62" value="M" style="text;html=1;align=center;verticalAlign=middle;whiteSpace=wrap;rounded=0;" vertex="1" parent="1">
          <mxGeometry x="230" y="222.5" width="20" height="15" as="geometry" />
        </mxCell>
        <mxCell id="KXiXMz8kZ8tg4A6hz5RU-63" value="N" style="text;html=1;align=center;verticalAlign=middle;whiteSpace=wrap;rounded=0;" vertex="1" parent="1">
          <mxGeometry x="270" y="180" width="20" height="10" as="geometry" />
        </mxCell>
        <mxCell id="KXiXMz8kZ8tg4A6hz5RU-64" value="" style="endArrow=none;html=1;rounded=0;exitX=0;exitY=0.5;exitDx=0;exitDy=0;entryX=1;entryY=0.5;entryDx=0;entryDy=0;" edge="1" parent="1" source="KXiXMz8kZ8tg4A6hz5RU-58" target="KXiXMz8kZ8tg4A6hz5RU-37">
          <mxGeometry width="50" height="50" relative="1" as="geometry">
            <mxPoint x="410" y="270" as="sourcePoint" />
            <mxPoint x="460" y="220" as="targetPoint" />
          </mxGeometry>
        </mxCell>
        <mxCell id="KXiXMz8kZ8tg4A6hz5RU-65" value="" style="endArrow=none;html=1;rounded=0;exitX=0;exitY=0;exitDx=0;exitDy=0;entryX=1;entryY=0.5;entryDx=0;entryDy=0;" edge="1" parent="1" source="KXiXMz8kZ8tg4A6hz5RU-58" target="KXiXMz8kZ8tg4A6hz5RU-38">
          <mxGeometry width="50" height="50" relative="1" as="geometry">
            <mxPoint x="410" y="270" as="sourcePoint" />
            <mxPoint x="460" y="220" as="targetPoint" />
          </mxGeometry>
        </mxCell>
        <mxCell id="KXiXMz8kZ8tg4A6hz5RU-66" value="" style="endArrow=none;html=1;rounded=0;entryX=0.349;entryY=0.149;entryDx=0;entryDy=0;entryPerimeter=0;exitX=0.73;exitY=0.954;exitDx=0;exitDy=0;exitPerimeter=0;" edge="1" parent="1" source="KXiXMz8kZ8tg4A6hz5RU-36" target="KXiXMz8kZ8tg4A6hz5RU-58">
          <mxGeometry width="50" height="50" relative="1" as="geometry">
            <mxPoint x="410" y="270" as="sourcePoint" />
            <mxPoint x="460" y="220" as="targetPoint" />
          </mxGeometry>
        </mxCell>
        <mxCell id="KXiXMz8kZ8tg4A6hz5RU-68" value="&lt;font style=&quot;font-size: 14px;&quot;&gt;1-Car(&lt;u&gt;&lt;b&gt;id&lt;/b&gt;&lt;/u&gt;, &lt;font color=&quot;#d5e407&quot;&gt;&lt;b&gt;owner-ID &lt;/b&gt;&lt;/font&gt;, model name,brand, model year, a copy of valid license, car status, rent amount )&lt;/font&gt;" style="text;html=1;align=center;verticalAlign=middle;whiteSpace=wrap;rounded=0;" vertex="1" parent="1">
          <mxGeometry x="65" y="360" width="675" height="30" as="geometry" />
        </mxCell>
        <mxCell id="KXiXMz8kZ8tg4A6hz5RU-69" value="&lt;font style=&quot;font-size: 14px;&quot;&gt;2- office(&lt;u&gt;id&lt;/u&gt;, address,contact no)&lt;/font&gt;" style="text;html=1;align=center;verticalAlign=middle;whiteSpace=wrap;rounded=0;" vertex="1" parent="1">
          <mxGeometry x="50" y="390" width="270" height="30" as="geometry" />
        </mxCell>
        <mxCell id="KXiXMz8kZ8tg4A6hz5RU-70" value="&lt;font style=&quot;font-size: 14px;&quot;&gt;3- Owner(&lt;u&gt;National id,&lt;/u&gt;&amp;nbsp;&lt;font color=&quot;#eef20d&quot;&gt;&lt;b&gt;officeid&lt;/b&gt;&lt;/font&gt;, bank no, fname,lname&lt;u&gt;)&lt;/u&gt;&lt;/font&gt;" style="text;html=1;align=center;verticalAlign=middle;whiteSpace=wrap;rounded=0;" vertex="1" parent="1">
          <mxGeometry x="80" y="420" width="340" height="30" as="geometry" />
        </mxCell>
        <mxCell id="KXiXMz8kZ8tg4A6hz5RU-71" value="&lt;font style=&quot;font-size: 14px;&quot;&gt;4- tenant(&lt;u&gt;national id&lt;/u&gt;, license,mobile num)&lt;/font&gt;" style="text;html=1;align=center;verticalAlign=middle;whiteSpace=wrap;rounded=0;" vertex="1" parent="1">
          <mxGeometry x="70" y="450" width="290" height="30" as="geometry" />
        </mxCell>
        <mxCell id="KXiXMz8kZ8tg4A6hz5RU-72" value="&lt;font style=&quot;font-size: 14px;&quot;&gt;5-rent-table(&lt;u&gt;carid,tenantid&lt;/u&gt;,start date,duration,payment method))&lt;/font&gt;" style="text;html=1;align=center;verticalAlign=middle;whiteSpace=wrap;rounded=0;" vertex="1" parent="1">
          <mxGeometry x="80" y="480" width="350" height="30" as="geometry" />
        </mxCell>
        <mxCell id="GOl_24Z3CTXpqp8vcumB-1" value="" style="shape=link;html=1;rounded=0;exitX=0.5;exitY=1;exitDx=0;exitDy=0;" edge="1" parent="1" source="KXiXMz8kZ8tg4A6hz5RU-1">
          <mxGeometry width="100" relative="1" as="geometry">
            <mxPoint x="380" y="270" as="sourcePoint" />
            <mxPoint x="420" y="230" as="targetPoint" />
          </mxGeometry>
        </mxCell>
        <mxCell id="GOl_24Z3CTXpqp8vcumB-2" value="" style="shape=link;html=1;rounded=0;exitX=1;exitY=1;exitDx=0;exitDy=0;entryX=0;entryY=0.25;entryDx=0;entryDy=0;" edge="1" parent="1" source="KXiXMz8kZ8tg4A6hz5RU-44" target="KXiXMz8kZ8tg4A6hz5RU-25">
          <mxGeometry width="100" relative="1" as="geometry">
            <mxPoint x="380" y="270" as="sourcePoint" />
            <mxPoint x="480" y="270" as="targetPoint" />
          </mxGeometry>
        </mxCell>
        <mxCell id="GOl_24Z3CTXpqp8vcumB-4" value="" style="shape=link;html=1;rounded=0;exitX=0.5;exitY=1;exitDx=0;exitDy=0;entryX=0.5;entryY=0;entryDx=0;entryDy=0;" edge="1" parent="1" source="KXiXMz8kZ8tg4A6hz5RU-39" target="KXiXMz8kZ8tg4A6hz5RU-25">
          <mxGeometry width="100" relative="1" as="geometry">
            <mxPoint x="380" y="270" as="sourcePoint" />
            <mxPoint x="480" y="270" as="targetPoint" />
          </mxGeometry>
        </mxCell>
      </root>
    </mxGraphModel>
  </diagram>
  <diagram name="medical analysis" id="hKoiR-p2pjy5ix2_Ggup">
    <mxGraphModel dx="1313" dy="786" grid="1" gridSize="10" guides="1" tooltips="1" connect="1" arrows="1" fold="1" page="1" pageScale="1" pageWidth="850" pageHeight="1100" math="0" shadow="0">
      <root>
        <mxCell id="0" />
        <mxCell id="1" parent="0" />
        <mxCell id="nGJVegaLEnlhwHrPuXhA-1" value="branch" style="rounded=0;whiteSpace=wrap;html=1;" parent="1" vertex="1">
          <mxGeometry x="140" y="210" width="90" height="40" as="geometry" />
        </mxCell>
        <mxCell id="nGJVegaLEnlhwHrPuXhA-2" value="&lt;u&gt;code&lt;/u&gt;" style="ellipse;whiteSpace=wrap;html=1;" parent="1" vertex="1">
          <mxGeometry x="20" y="190" width="70" height="50" as="geometry" />
        </mxCell>
        <mxCell id="nGJVegaLEnlhwHrPuXhA-3" value="short name" style="ellipse;whiteSpace=wrap;html=1;" parent="1" vertex="1">
          <mxGeometry x="50" y="140" width="70" height="50" as="geometry" />
        </mxCell>
        <mxCell id="nGJVegaLEnlhwHrPuXhA-4" value="address" style="ellipse;whiteSpace=wrap;html=1;" parent="1" vertex="1">
          <mxGeometry x="140" y="130" width="80" height="50" as="geometry" />
        </mxCell>
        <mxCell id="nGJVegaLEnlhwHrPuXhA-5" value="city" style="ellipse;whiteSpace=wrap;html=1;" parent="1" vertex="1">
          <mxGeometry x="110" y="60" width="70" height="50" as="geometry" />
        </mxCell>
        <mxCell id="nGJVegaLEnlhwHrPuXhA-6" value="building no" style="ellipse;whiteSpace=wrap;html=1;" parent="1" vertex="1">
          <mxGeometry x="230" y="90" width="70" height="40" as="geometry" />
        </mxCell>
        <mxCell id="nGJVegaLEnlhwHrPuXhA-7" value="street" style="ellipse;whiteSpace=wrap;html=1;" parent="1" vertex="1">
          <mxGeometry x="180" y="60" width="70" height="40" as="geometry" />
        </mxCell>
        <mxCell id="nGJVegaLEnlhwHrPuXhA-9" value="" style="endArrow=none;html=1;rounded=0;exitX=1;exitY=0.5;exitDx=0;exitDy=0;" parent="1" source="nGJVegaLEnlhwHrPuXhA-2" edge="1">
          <mxGeometry width="50" height="50" relative="1" as="geometry">
            <mxPoint x="400" y="340" as="sourcePoint" />
            <mxPoint x="140" y="240" as="targetPoint" />
          </mxGeometry>
        </mxCell>
        <mxCell id="nGJVegaLEnlhwHrPuXhA-10" value="" style="endArrow=none;html=1;rounded=0;exitX=1;exitY=1;exitDx=0;exitDy=0;entryX=0.116;entryY=0.125;entryDx=0;entryDy=0;entryPerimeter=0;" parent="1" source="nGJVegaLEnlhwHrPuXhA-3" target="nGJVegaLEnlhwHrPuXhA-1" edge="1">
          <mxGeometry width="50" height="50" relative="1" as="geometry">
            <mxPoint x="400" y="340" as="sourcePoint" />
            <mxPoint x="450" y="290" as="targetPoint" />
          </mxGeometry>
        </mxCell>
        <mxCell id="nGJVegaLEnlhwHrPuXhA-11" value="" style="endArrow=none;html=1;rounded=0;exitX=0.5;exitY=0;exitDx=0;exitDy=0;entryX=0.41;entryY=0.964;entryDx=0;entryDy=0;entryPerimeter=0;" parent="1" source="nGJVegaLEnlhwHrPuXhA-1" target="nGJVegaLEnlhwHrPuXhA-4" edge="1">
          <mxGeometry width="50" height="50" relative="1" as="geometry">
            <mxPoint x="400" y="340" as="sourcePoint" />
            <mxPoint x="450" y="290" as="targetPoint" />
          </mxGeometry>
        </mxCell>
        <mxCell id="nGJVegaLEnlhwHrPuXhA-12" value="" style="endArrow=none;html=1;rounded=0;exitX=0;exitY=0;exitDx=0;exitDy=0;entryX=0.5;entryY=1;entryDx=0;entryDy=0;" parent="1" source="nGJVegaLEnlhwHrPuXhA-4" target="nGJVegaLEnlhwHrPuXhA-5" edge="1">
          <mxGeometry width="50" height="50" relative="1" as="geometry">
            <mxPoint x="400" y="340" as="sourcePoint" />
            <mxPoint x="450" y="290" as="targetPoint" />
          </mxGeometry>
        </mxCell>
        <mxCell id="nGJVegaLEnlhwHrPuXhA-13" value="" style="endArrow=none;html=1;rounded=0;exitX=0.71;exitY=0.132;exitDx=0;exitDy=0;exitPerimeter=0;entryX=0.343;entryY=0.915;entryDx=0;entryDy=0;entryPerimeter=0;" parent="1" source="nGJVegaLEnlhwHrPuXhA-4" target="nGJVegaLEnlhwHrPuXhA-7" edge="1">
          <mxGeometry width="50" height="50" relative="1" as="geometry">
            <mxPoint x="400" y="340" as="sourcePoint" />
            <mxPoint x="450" y="290" as="targetPoint" />
          </mxGeometry>
        </mxCell>
        <mxCell id="nGJVegaLEnlhwHrPuXhA-14" value="" style="endArrow=none;html=1;rounded=0;exitX=0.93;exitY=0.692;exitDx=0;exitDy=0;exitPerimeter=0;entryX=0.246;entryY=0.945;entryDx=0;entryDy=0;entryPerimeter=0;" parent="1" source="nGJVegaLEnlhwHrPuXhA-4" target="nGJVegaLEnlhwHrPuXhA-6" edge="1">
          <mxGeometry width="50" height="50" relative="1" as="geometry">
            <mxPoint x="400" y="340" as="sourcePoint" />
            <mxPoint x="280" y="140" as="targetPoint" />
          </mxGeometry>
        </mxCell>
        <mxCell id="nGJVegaLEnlhwHrPuXhA-15" value="test" style="rounded=0;whiteSpace=wrap;html=1;" parent="1" vertex="1">
          <mxGeometry x="155" y="490" width="90" height="40" as="geometry" />
        </mxCell>
        <mxCell id="nGJVegaLEnlhwHrPuXhA-16" value="provide" style="rhombus;whiteSpace=wrap;html=1;" parent="1" vertex="1">
          <mxGeometry x="150" y="325" width="60" height="70" as="geometry" />
        </mxCell>
        <mxCell id="nGJVegaLEnlhwHrPuXhA-17" value="" style="endArrow=none;html=1;rounded=0;exitX=0.5;exitY=0;exitDx=0;exitDy=0;entryX=0.447;entryY=0.911;entryDx=0;entryDy=0;entryPerimeter=0;" parent="1" source="nGJVegaLEnlhwHrPuXhA-15" target="nGJVegaLEnlhwHrPuXhA-16" edge="1">
          <mxGeometry width="50" height="50" relative="1" as="geometry">
            <mxPoint x="420" y="460" as="sourcePoint" />
            <mxPoint x="206.42000000000007" y="462.23" as="targetPoint" />
          </mxGeometry>
        </mxCell>
        <mxCell id="nGJVegaLEnlhwHrPuXhA-18" value="" style="endArrow=none;html=1;rounded=0;exitX=0.5;exitY=0;exitDx=0;exitDy=0;entryX=0.5;entryY=1;entryDx=0;entryDy=0;" parent="1" source="nGJVegaLEnlhwHrPuXhA-16" target="nGJVegaLEnlhwHrPuXhA-1" edge="1">
          <mxGeometry width="50" height="50" relative="1" as="geometry">
            <mxPoint x="400" y="340" as="sourcePoint" />
            <mxPoint x="450" y="290" as="targetPoint" />
          </mxGeometry>
        </mxCell>
        <mxCell id="nGJVegaLEnlhwHrPuXhA-19" value="&lt;u&gt;code&lt;/u&gt;" style="ellipse;whiteSpace=wrap;html=1;" parent="1" vertex="1">
          <mxGeometry x="50" y="480" width="50" height="30" as="geometry" />
        </mxCell>
        <mxCell id="nGJVegaLEnlhwHrPuXhA-20" value="duration" style="ellipse;whiteSpace=wrap;html=1;" parent="1" vertex="1">
          <mxGeometry x="125" y="550" width="50" height="30" as="geometry" />
        </mxCell>
        <mxCell id="nGJVegaLEnlhwHrPuXhA-21" value="cost" style="ellipse;whiteSpace=wrap;html=1;" parent="1" vertex="1">
          <mxGeometry x="85" y="540" width="40" height="30" as="geometry" />
        </mxCell>
        <mxCell id="nGJVegaLEnlhwHrPuXhA-22" value="name" style="ellipse;whiteSpace=wrap;html=1;" parent="1" vertex="1">
          <mxGeometry x="50" y="520" width="40" height="30" as="geometry" />
        </mxCell>
        <mxCell id="nGJVegaLEnlhwHrPuXhA-23" value="" style="endArrow=none;html=1;rounded=0;exitX=1;exitY=0.5;exitDx=0;exitDy=0;entryX=0;entryY=0;entryDx=0;entryDy=0;" parent="1" source="nGJVegaLEnlhwHrPuXhA-19" target="nGJVegaLEnlhwHrPuXhA-15" edge="1">
          <mxGeometry width="50" height="50" relative="1" as="geometry">
            <mxPoint x="420" y="460" as="sourcePoint" />
            <mxPoint x="470" y="410" as="targetPoint" />
          </mxGeometry>
        </mxCell>
        <mxCell id="nGJVegaLEnlhwHrPuXhA-24" value="" style="endArrow=none;html=1;rounded=0;exitX=1;exitY=0;exitDx=0;exitDy=0;entryX=0;entryY=0.25;entryDx=0;entryDy=0;" parent="1" source="nGJVegaLEnlhwHrPuXhA-22" target="nGJVegaLEnlhwHrPuXhA-15" edge="1">
          <mxGeometry width="50" height="50" relative="1" as="geometry">
            <mxPoint x="420" y="460" as="sourcePoint" />
            <mxPoint x="470" y="410" as="targetPoint" />
          </mxGeometry>
        </mxCell>
        <mxCell id="nGJVegaLEnlhwHrPuXhA-25" value="" style="endArrow=none;html=1;rounded=0;exitX=1;exitY=0;exitDx=0;exitDy=0;entryX=0;entryY=0.5;entryDx=0;entryDy=0;" parent="1" source="nGJVegaLEnlhwHrPuXhA-21" target="nGJVegaLEnlhwHrPuXhA-15" edge="1">
          <mxGeometry width="50" height="50" relative="1" as="geometry">
            <mxPoint x="420" y="460" as="sourcePoint" />
            <mxPoint x="470" y="410" as="targetPoint" />
          </mxGeometry>
        </mxCell>
        <mxCell id="nGJVegaLEnlhwHrPuXhA-26" value="" style="endArrow=none;html=1;rounded=0;exitX=0.5;exitY=0;exitDx=0;exitDy=0;entryX=0.136;entryY=1.005;entryDx=0;entryDy=0;entryPerimeter=0;" parent="1" source="nGJVegaLEnlhwHrPuXhA-20" target="nGJVegaLEnlhwHrPuXhA-15" edge="1">
          <mxGeometry width="50" height="50" relative="1" as="geometry">
            <mxPoint x="420" y="460" as="sourcePoint" />
            <mxPoint x="470" y="410" as="targetPoint" />
          </mxGeometry>
        </mxCell>
        <mxCell id="nGJVegaLEnlhwHrPuXhA-27" value="patient" style="rounded=0;whiteSpace=wrap;html=1;" parent="1" vertex="1">
          <mxGeometry x="390" y="490" width="90" height="40" as="geometry" />
        </mxCell>
        <mxCell id="nGJVegaLEnlhwHrPuXhA-28" value="&lt;u&gt;id&lt;/u&gt;" style="ellipse;whiteSpace=wrap;html=1;" parent="1" vertex="1">
          <mxGeometry x="330" y="550" width="40" height="30" as="geometry" />
        </mxCell>
        <mxCell id="nGJVegaLEnlhwHrPuXhA-29" value="fullname" style="ellipse;whiteSpace=wrap;html=1;" parent="1" vertex="1">
          <mxGeometry x="370" y="560" width="60" height="40" as="geometry" />
        </mxCell>
        <mxCell id="nGJVegaLEnlhwHrPuXhA-30" value="fname" style="ellipse;whiteSpace=wrap;html=1;" parent="1" vertex="1">
          <mxGeometry x="385" y="630" width="60" height="40" as="geometry" />
        </mxCell>
        <mxCell id="nGJVegaLEnlhwHrPuXhA-31" value="lname" style="ellipse;whiteSpace=wrap;html=1;" parent="1" vertex="1">
          <mxGeometry x="450" y="630" width="60" height="40" as="geometry" />
        </mxCell>
        <mxCell id="nGJVegaLEnlhwHrPuXhA-32" value="age" style="ellipse;whiteSpace=wrap;html=1;dashed=1;" parent="1" vertex="1">
          <mxGeometry x="430" y="565" width="50" height="30" as="geometry" />
        </mxCell>
        <mxCell id="nGJVegaLEnlhwHrPuXhA-33" value="chronic disease" style="ellipse;whiteSpace=wrap;html=1;" parent="1" vertex="1">
          <mxGeometry x="505" y="445" width="50" height="50" as="geometry" />
        </mxCell>
        <mxCell id="nGJVegaLEnlhwHrPuXhA-34" value="date of birth" style="ellipse;whiteSpace=wrap;html=1;" parent="1" vertex="1">
          <mxGeometry x="505" y="495" width="50" height="40" as="geometry" />
        </mxCell>
        <mxCell id="nGJVegaLEnlhwHrPuXhA-35" value="mobile no" style="ellipse;whiteSpace=wrap;html=1;" parent="1" vertex="1">
          <mxGeometry x="480" y="535" width="50" height="40" as="geometry" />
        </mxCell>
        <mxCell id="nGJVegaLEnlhwHrPuXhA-36" value="" style="endArrow=none;html=1;rounded=0;exitX=1;exitY=0;exitDx=0;exitDy=0;entryX=0.084;entryY=1.005;entryDx=0;entryDy=0;entryPerimeter=0;" parent="1" source="nGJVegaLEnlhwHrPuXhA-28" target="nGJVegaLEnlhwHrPuXhA-27" edge="1">
          <mxGeometry width="50" height="50" relative="1" as="geometry">
            <mxPoint x="420" y="460" as="sourcePoint" />
            <mxPoint x="470" y="410" as="targetPoint" />
          </mxGeometry>
        </mxCell>
        <mxCell id="nGJVegaLEnlhwHrPuXhA-37" value="" style="endArrow=none;html=1;rounded=0;exitX=0.62;exitY=1.015;exitDx=0;exitDy=0;exitPerimeter=0;entryX=0.5;entryY=0;entryDx=0;entryDy=0;" parent="1" source="nGJVegaLEnlhwHrPuXhA-29" target="nGJVegaLEnlhwHrPuXhA-30" edge="1">
          <mxGeometry width="50" height="50" relative="1" as="geometry">
            <mxPoint x="420" y="460" as="sourcePoint" />
            <mxPoint x="470" y="410" as="targetPoint" />
          </mxGeometry>
        </mxCell>
        <mxCell id="nGJVegaLEnlhwHrPuXhA-38" value="" style="endArrow=none;html=1;rounded=0;exitX=1;exitY=1;exitDx=0;exitDy=0;entryX=0.5;entryY=0;entryDx=0;entryDy=0;" parent="1" source="nGJVegaLEnlhwHrPuXhA-29" target="nGJVegaLEnlhwHrPuXhA-31" edge="1">
          <mxGeometry width="50" height="50" relative="1" as="geometry">
            <mxPoint x="420" y="460" as="sourcePoint" />
            <mxPoint x="470" y="410" as="targetPoint" />
          </mxGeometry>
        </mxCell>
        <mxCell id="nGJVegaLEnlhwHrPuXhA-39" value="" style="endArrow=none;html=1;rounded=0;exitX=0.5;exitY=0;exitDx=0;exitDy=0;" parent="1" source="nGJVegaLEnlhwHrPuXhA-29" edge="1">
          <mxGeometry width="50" height="50" relative="1" as="geometry">
            <mxPoint x="420" y="460" as="sourcePoint" />
            <mxPoint x="410" y="530" as="targetPoint" />
          </mxGeometry>
        </mxCell>
        <mxCell id="nGJVegaLEnlhwHrPuXhA-40" value="" style="endArrow=none;html=1;rounded=0;exitX=0.376;exitY=0.12;exitDx=0;exitDy=0;exitPerimeter=0;entryX=0.5;entryY=1;entryDx=0;entryDy=0;" parent="1" source="nGJVegaLEnlhwHrPuXhA-32" target="nGJVegaLEnlhwHrPuXhA-27" edge="1">
          <mxGeometry width="50" height="50" relative="1" as="geometry">
            <mxPoint x="420" y="460" as="sourcePoint" />
            <mxPoint x="470" y="410" as="targetPoint" />
          </mxGeometry>
        </mxCell>
        <mxCell id="nGJVegaLEnlhwHrPuXhA-41" value="" style="endArrow=none;html=1;rounded=0;exitX=1;exitY=0;exitDx=0;exitDy=0;entryX=0;entryY=0;entryDx=0;entryDy=0;" parent="1" source="nGJVegaLEnlhwHrPuXhA-27" target="nGJVegaLEnlhwHrPuXhA-33" edge="1">
          <mxGeometry width="50" height="50" relative="1" as="geometry">
            <mxPoint x="420" y="460" as="sourcePoint" />
            <mxPoint x="470" y="410" as="targetPoint" />
          </mxGeometry>
        </mxCell>
        <mxCell id="nGJVegaLEnlhwHrPuXhA-42" value="" style="endArrow=none;html=1;rounded=0;exitX=1;exitY=0.75;exitDx=0;exitDy=0;entryX=0;entryY=0;entryDx=0;entryDy=0;" parent="1" source="nGJVegaLEnlhwHrPuXhA-27" target="nGJVegaLEnlhwHrPuXhA-34" edge="1">
          <mxGeometry width="50" height="50" relative="1" as="geometry">
            <mxPoint x="420" y="460" as="sourcePoint" />
            <mxPoint x="470" y="410" as="targetPoint" />
          </mxGeometry>
        </mxCell>
        <mxCell id="nGJVegaLEnlhwHrPuXhA-43" value="" style="endArrow=none;html=1;rounded=0;exitX=1;exitY=1;exitDx=0;exitDy=0;entryX=0;entryY=0;entryDx=0;entryDy=0;" parent="1" source="nGJVegaLEnlhwHrPuXhA-27" target="nGJVegaLEnlhwHrPuXhA-35" edge="1">
          <mxGeometry width="50" height="50" relative="1" as="geometry">
            <mxPoint x="420" y="460" as="sourcePoint" />
            <mxPoint x="470" y="410" as="targetPoint" />
          </mxGeometry>
        </mxCell>
        <mxCell id="nGJVegaLEnlhwHrPuXhA-44" value="gender" style="ellipse;whiteSpace=wrap;html=1;" parent="1" vertex="1">
          <mxGeometry x="485" y="395" width="60" height="40" as="geometry" />
        </mxCell>
        <mxCell id="nGJVegaLEnlhwHrPuXhA-45" value="" style="endArrow=none;html=1;rounded=0;exitX=0.884;exitY=-0.115;exitDx=0;exitDy=0;exitPerimeter=0;entryX=0.083;entryY=0.675;entryDx=0;entryDy=0;entryPerimeter=0;" parent="1" source="nGJVegaLEnlhwHrPuXhA-27" edge="1">
          <mxGeometry width="50" height="50" relative="1" as="geometry">
            <mxPoint x="420" y="460" as="sourcePoint" />
            <mxPoint x="499.98" y="427" as="targetPoint" />
          </mxGeometry>
        </mxCell>
        <mxCell id="nGJVegaLEnlhwHrPuXhA-46" value="employee" style="rounded=0;whiteSpace=wrap;html=1;" parent="1" vertex="1">
          <mxGeometry x="525" y="146" width="80" height="35" as="geometry" />
        </mxCell>
        <mxCell id="nGJVegaLEnlhwHrPuXhA-47" value="salary" style="ellipse;whiteSpace=wrap;html=1;" parent="1" vertex="1">
          <mxGeometry x="575" y="51" width="50" height="40" as="geometry" />
        </mxCell>
        <mxCell id="nGJVegaLEnlhwHrPuXhA-48" value="full name" style="ellipse;whiteSpace=wrap;html=1;" parent="1" vertex="1">
          <mxGeometry x="500" y="51" width="60" height="40" as="geometry" />
        </mxCell>
        <mxCell id="nGJVegaLEnlhwHrPuXhA-49" value="&lt;u&gt;id&lt;/u&gt;" style="ellipse;whiteSpace=wrap;html=1;" parent="1" vertex="1">
          <mxGeometry x="475" y="96" width="50" height="20" as="geometry" />
        </mxCell>
        <mxCell id="nGJVegaLEnlhwHrPuXhA-50" value="lname" style="ellipse;whiteSpace=wrap;html=1;" parent="1" vertex="1">
          <mxGeometry x="525" width="60" height="40" as="geometry" />
        </mxCell>
        <mxCell id="nGJVegaLEnlhwHrPuXhA-51" value="fname" style="ellipse;whiteSpace=wrap;html=1;" parent="1" vertex="1">
          <mxGeometry x="475" width="60" height="40" as="geometry" />
        </mxCell>
        <mxCell id="nGJVegaLEnlhwHrPuXhA-52" value="team" style="ellipse;whiteSpace=wrap;html=1;" parent="1" vertex="1">
          <mxGeometry x="615" y="96" width="50" height="30" as="geometry" />
        </mxCell>
        <mxCell id="nGJVegaLEnlhwHrPuXhA-53" value="end time" style="ellipse;whiteSpace=wrap;html=1;" parent="1" vertex="1">
          <mxGeometry x="625" y="171" width="50" height="30" as="geometry" />
        </mxCell>
        <mxCell id="nGJVegaLEnlhwHrPuXhA-54" value="start time" style="ellipse;whiteSpace=wrap;html=1;" parent="1" vertex="1">
          <mxGeometry x="615" y="131" width="60" height="40" as="geometry" />
        </mxCell>
        <mxCell id="nGJVegaLEnlhwHrPuXhA-55" value="" style="endArrow=none;html=1;rounded=0;exitX=0.5;exitY=1;exitDx=0;exitDy=0;entryX=0;entryY=0.25;entryDx=0;entryDy=0;" parent="1" source="nGJVegaLEnlhwHrPuXhA-49" target="nGJVegaLEnlhwHrPuXhA-46" edge="1">
          <mxGeometry width="50" height="50" relative="1" as="geometry">
            <mxPoint x="400" y="290" as="sourcePoint" />
            <mxPoint x="450" y="240" as="targetPoint" />
          </mxGeometry>
        </mxCell>
        <mxCell id="nGJVegaLEnlhwHrPuXhA-56" value="" style="endArrow=none;html=1;rounded=0;exitX=0.397;exitY=0.945;exitDx=0;exitDy=0;exitPerimeter=0;entryX=0.135;entryY=-0.011;entryDx=0;entryDy=0;entryPerimeter=0;" parent="1" source="nGJVegaLEnlhwHrPuXhA-48" target="nGJVegaLEnlhwHrPuXhA-46" edge="1">
          <mxGeometry width="50" height="50" relative="1" as="geometry">
            <mxPoint x="515" y="291" as="sourcePoint" />
            <mxPoint x="565" y="241" as="targetPoint" />
          </mxGeometry>
        </mxCell>
        <mxCell id="nGJVegaLEnlhwHrPuXhA-57" value="" style="endArrow=none;html=1;rounded=0;exitX=0.627;exitY=0.995;exitDx=0;exitDy=0;exitPerimeter=0;" parent="1" edge="1">
          <mxGeometry width="50" height="50" relative="1" as="geometry">
            <mxPoint x="512.6199999999999" y="40.799999999999955" as="sourcePoint" />
            <mxPoint x="525" y="51" as="targetPoint" />
          </mxGeometry>
        </mxCell>
        <mxCell id="nGJVegaLEnlhwHrPuXhA-58" value="" style="endArrow=none;html=1;rounded=0;exitX=0.36;exitY=0.975;exitDx=0;exitDy=0;exitPerimeter=0;entryX=0.5;entryY=0;entryDx=0;entryDy=0;" parent="1" target="nGJVegaLEnlhwHrPuXhA-48" edge="1">
          <mxGeometry width="50" height="50" relative="1" as="geometry">
            <mxPoint x="556.5999999999999" y="40" as="sourcePoint" />
            <mxPoint x="565" y="241" as="targetPoint" />
          </mxGeometry>
        </mxCell>
        <mxCell id="nGJVegaLEnlhwHrPuXhA-59" value="" style="endArrow=none;html=1;rounded=0;exitX=0.5;exitY=0;exitDx=0;exitDy=0;entryX=0;entryY=1;entryDx=0;entryDy=0;" parent="1" source="nGJVegaLEnlhwHrPuXhA-46" target="nGJVegaLEnlhwHrPuXhA-47" edge="1">
          <mxGeometry width="50" height="50" relative="1" as="geometry">
            <mxPoint x="515" y="291" as="sourcePoint" />
            <mxPoint x="565" y="241" as="targetPoint" />
          </mxGeometry>
        </mxCell>
        <mxCell id="nGJVegaLEnlhwHrPuXhA-60" value="" style="endArrow=none;html=1;rounded=0;exitX=0.75;exitY=0;exitDx=0;exitDy=0;" parent="1" source="nGJVegaLEnlhwHrPuXhA-46" edge="1">
          <mxGeometry width="50" height="50" relative="1" as="geometry">
            <mxPoint x="515" y="291" as="sourcePoint" />
            <mxPoint x="625" y="121" as="targetPoint" />
          </mxGeometry>
        </mxCell>
        <mxCell id="nGJVegaLEnlhwHrPuXhA-61" value="" style="endArrow=none;html=1;rounded=0;exitX=1;exitY=0.25;exitDx=0;exitDy=0;entryX=0;entryY=1;entryDx=0;entryDy=0;" parent="1" source="nGJVegaLEnlhwHrPuXhA-46" target="nGJVegaLEnlhwHrPuXhA-54" edge="1">
          <mxGeometry width="50" height="50" relative="1" as="geometry">
            <mxPoint x="515" y="291" as="sourcePoint" />
            <mxPoint x="565" y="241" as="targetPoint" />
          </mxGeometry>
        </mxCell>
        <mxCell id="nGJVegaLEnlhwHrPuXhA-62" value="" style="endArrow=none;html=1;rounded=0;exitX=1;exitY=0.75;exitDx=0;exitDy=0;entryX=-0.008;entryY=0.3;entryDx=0;entryDy=0;entryPerimeter=0;" parent="1" source="nGJVegaLEnlhwHrPuXhA-46" target="nGJVegaLEnlhwHrPuXhA-53" edge="1">
          <mxGeometry width="50" height="50" relative="1" as="geometry">
            <mxPoint x="515" y="291" as="sourcePoint" />
            <mxPoint x="565" y="241" as="targetPoint" />
          </mxGeometry>
        </mxCell>
        <mxCell id="nGJVegaLEnlhwHrPuXhA-63" value="Test-performed" style="rhombus;whiteSpace=wrap;html=1;" parent="1" vertex="1">
          <mxGeometry x="270" y="410" width="90" height="80" as="geometry" />
        </mxCell>
        <mxCell id="nGJVegaLEnlhwHrPuXhA-70" value="time of performing test" style="ellipse;whiteSpace=wrap;html=1;" parent="1" vertex="1">
          <mxGeometry x="380" y="390" width="70" height="50" as="geometry" />
        </mxCell>
        <mxCell id="nGJVegaLEnlhwHrPuXhA-72" value="" style="endArrow=none;html=1;rounded=0;exitX=0.36;exitY=1.115;exitDx=0;exitDy=0;exitPerimeter=0;entryX=1;entryY=0;entryDx=0;entryDy=0;" parent="1" source="nGJVegaLEnlhwHrPuXhA-71" target="nGJVegaLEnlhwHrPuXhA-63" edge="1">
          <mxGeometry width="50" height="50" relative="1" as="geometry">
            <mxPoint x="400" y="290" as="sourcePoint" />
            <mxPoint x="450" y="240" as="targetPoint" />
          </mxGeometry>
        </mxCell>
        <mxCell id="nGJVegaLEnlhwHrPuXhA-73" value="" style="endArrow=none;html=1;rounded=0;exitX=0.84;exitY=0.363;exitDx=0;exitDy=0;exitPerimeter=0;entryX=0.069;entryY=0.74;entryDx=0;entryDy=0;entryPerimeter=0;" parent="1" source="nGJVegaLEnlhwHrPuXhA-63" target="nGJVegaLEnlhwHrPuXhA-70" edge="1">
          <mxGeometry width="50" height="50" relative="1" as="geometry">
            <mxPoint x="420" y="410" as="sourcePoint" />
            <mxPoint x="360.251262658471" y="422.6776695296636" as="targetPoint" />
          </mxGeometry>
        </mxCell>
        <mxCell id="nGJVegaLEnlhwHrPuXhA-74" value="M" style="text;html=1;align=center;verticalAlign=middle;whiteSpace=wrap;rounded=0;" parent="1" vertex="1">
          <mxGeometry x="240" y="455" width="60" height="30" as="geometry" />
        </mxCell>
        <mxCell id="nGJVegaLEnlhwHrPuXhA-75" value="N" style="text;html=1;align=center;verticalAlign=middle;whiteSpace=wrap;rounded=0;" parent="1" vertex="1">
          <mxGeometry x="345" y="445" width="60" height="30" as="geometry" />
        </mxCell>
        <mxCell id="nGJVegaLEnlhwHrPuXhA-76" value="M" style="text;html=1;align=center;verticalAlign=middle;whiteSpace=wrap;rounded=0;" parent="1" vertex="1">
          <mxGeometry x="310" y="380" width="20" height="30" as="geometry" />
        </mxCell>
        <mxCell id="nGJVegaLEnlhwHrPuXhA-77" value="N" style="text;html=1;align=center;verticalAlign=middle;whiteSpace=wrap;rounded=0;" parent="1" vertex="1">
          <mxGeometry x="270" y="490" width="60" height="30" as="geometry" />
        </mxCell>
        <mxCell id="nGJVegaLEnlhwHrPuXhA-80" value="M" style="text;html=1;align=center;verticalAlign=middle;whiteSpace=wrap;rounded=0;" parent="1" vertex="1">
          <mxGeometry x="310" y="470" width="60" height="30" as="geometry" />
        </mxCell>
        <mxCell id="nGJVegaLEnlhwHrPuXhA-81" value="N" style="text;html=1;align=center;verticalAlign=middle;whiteSpace=wrap;rounded=0;" parent="1" vertex="1">
          <mxGeometry x="280" y="400" width="25" height="30" as="geometry" />
        </mxCell>
        <mxCell id="nGJVegaLEnlhwHrPuXhA-83" value="WORK" style="rhombus;whiteSpace=wrap;html=1;" parent="1" vertex="1">
          <mxGeometry x="360" y="81" width="60" height="60" as="geometry" />
        </mxCell>
        <mxCell id="nGJVegaLEnlhwHrPuXhA-87" value="" style="endArrow=none;html=1;rounded=0;entryX=0;entryY=0.5;entryDx=0;entryDy=0;exitX=0.933;exitY=-0.055;exitDx=0;exitDy=0;exitPerimeter=0;" parent="1" source="nGJVegaLEnlhwHrPuXhA-1" target="nGJVegaLEnlhwHrPuXhA-83" edge="1">
          <mxGeometry width="50" height="50" relative="1" as="geometry">
            <mxPoint x="220" y="160" as="sourcePoint" />
            <mxPoint x="450" y="240" as="targetPoint" />
          </mxGeometry>
        </mxCell>
        <mxCell id="nGJVegaLEnlhwHrPuXhA-89" value="M" style="text;html=1;align=center;verticalAlign=middle;whiteSpace=wrap;rounded=0;" parent="1" vertex="1">
          <mxGeometry x="415" y="90" width="30" height="30" as="geometry" />
        </mxCell>
        <mxCell id="nGJVegaLEnlhwHrPuXhA-90" value="Supervised" style="rhombus;whiteSpace=wrap;html=1;" parent="1" vertex="1">
          <mxGeometry x="525" y="206" width="75" height="50" as="geometry" />
        </mxCell>
        <mxCell id="nGJVegaLEnlhwHrPuXhA-91" value="" style="endArrow=none;html=1;rounded=0;exitX=0;exitY=0.5;exitDx=0;exitDy=0;entryX=0.125;entryY=1.086;entryDx=0;entryDy=0;entryPerimeter=0;" parent="1" source="nGJVegaLEnlhwHrPuXhA-90" target="nGJVegaLEnlhwHrPuXhA-46" edge="1">
          <mxGeometry width="50" height="50" relative="1" as="geometry">
            <mxPoint x="515" y="291" as="sourcePoint" />
            <mxPoint x="565" y="241" as="targetPoint" />
          </mxGeometry>
        </mxCell>
        <mxCell id="nGJVegaLEnlhwHrPuXhA-92" value="" style="endArrow=none;html=1;rounded=0;exitX=1;exitY=0.5;exitDx=0;exitDy=0;entryX=0.625;entryY=0.949;entryDx=0;entryDy=0;entryPerimeter=0;" parent="1" source="nGJVegaLEnlhwHrPuXhA-90" target="nGJVegaLEnlhwHrPuXhA-46" edge="1">
          <mxGeometry width="50" height="50" relative="1" as="geometry">
            <mxPoint x="515" y="291" as="sourcePoint" />
            <mxPoint x="565" y="241" as="targetPoint" />
          </mxGeometry>
        </mxCell>
        <mxCell id="nGJVegaLEnlhwHrPuXhA-93" value="1" style="text;html=1;align=center;verticalAlign=middle;whiteSpace=wrap;rounded=0;" parent="1" vertex="1">
          <mxGeometry x="345" y="181" width="30" height="30" as="geometry" />
        </mxCell>
        <mxCell id="nGJVegaLEnlhwHrPuXhA-95" value="M" style="text;html=1;align=center;verticalAlign=middle;whiteSpace=wrap;rounded=0;" parent="1" vertex="1">
          <mxGeometry x="535" y="181" width="60" height="30" as="geometry" />
        </mxCell>
        <mxCell id="nGJVegaLEnlhwHrPuXhA-97" value="Manage" style="rhombus;whiteSpace=wrap;html=1;" parent="1" vertex="1">
          <mxGeometry x="290" y="155" width="60" height="60" as="geometry" />
        </mxCell>
        <mxCell id="nGJVegaLEnlhwHrPuXhA-102" value="" style="endArrow=none;html=1;rounded=0;exitX=1;exitY=0.5;exitDx=0;exitDy=0;entryX=0;entryY=0.75;entryDx=0;entryDy=0;" parent="1" source="nGJVegaLEnlhwHrPuXhA-97" target="nGJVegaLEnlhwHrPuXhA-46" edge="1">
          <mxGeometry width="50" height="50" relative="1" as="geometry">
            <mxPoint x="400" y="290" as="sourcePoint" />
            <mxPoint x="450" y="240" as="targetPoint" />
          </mxGeometry>
        </mxCell>
        <mxCell id="nGJVegaLEnlhwHrPuXhA-71" value="date" style="ellipse;whiteSpace=wrap;html=1;" parent="1" vertex="1">
          <mxGeometry x="340" y="360" width="60" height="40" as="geometry" />
        </mxCell>
        <mxCell id="nGJVegaLEnlhwHrPuXhA-107" value="M" style="text;html=1;align=center;verticalAlign=middle;whiteSpace=wrap;rounded=0;" parent="1" vertex="1">
          <mxGeometry x="390" y="360" width="60" height="30" as="geometry" />
        </mxCell>
        <mxCell id="nGJVegaLEnlhwHrPuXhA-112" value="1" style="text;html=1;align=center;verticalAlign=middle;whiteSpace=wrap;rounded=0;" parent="1" vertex="1">
          <mxGeometry x="325" y="100" width="30" height="30" as="geometry" />
        </mxCell>
        <mxCell id="nGJVegaLEnlhwHrPuXhA-113" value="1" style="text;html=1;align=center;verticalAlign=middle;whiteSpace=wrap;rounded=0;" parent="1" vertex="1">
          <mxGeometry x="270" y="190" width="30" height="30" as="geometry" />
        </mxCell>
        <mxCell id="nGJVegaLEnlhwHrPuXhA-115" value="1" style="text;html=1;align=center;verticalAlign=middle;whiteSpace=wrap;rounded=0;" parent="1" vertex="1">
          <mxGeometry x="505" y="181" width="30" height="30" as="geometry" />
        </mxCell>
        <mxCell id="nGJVegaLEnlhwHrPuXhA-118" value="N" style="text;html=1;align=center;verticalAlign=middle;whiteSpace=wrap;rounded=0;" parent="1" vertex="1">
          <mxGeometry x="155" y="395" width="20" height="30" as="geometry" />
        </mxCell>
        <mxCell id="nGJVegaLEnlhwHrPuXhA-119" value="M" style="text;html=1;align=center;verticalAlign=middle;whiteSpace=wrap;rounded=0;" parent="1" vertex="1">
          <mxGeometry x="155" y="300" width="20" height="30" as="geometry" />
        </mxCell>
        <mxCell id="nGJVegaLEnlhwHrPuXhA-120" value="" style="shape=link;html=1;rounded=0;exitX=1;exitY=1;exitDx=0;exitDy=0;entryX=0.25;entryY=1;entryDx=0;entryDy=0;" parent="1" source="nGJVegaLEnlhwHrPuXhA-1" target="nGJVegaLEnlhwHrPuXhA-76" edge="1">
          <mxGeometry width="100" relative="1" as="geometry">
            <mxPoint x="300" y="270" as="sourcePoint" />
            <mxPoint x="470" y="400" as="targetPoint" />
          </mxGeometry>
        </mxCell>
        <mxCell id="nGJVegaLEnlhwHrPuXhA-121" value="Text" style="text;html=1;align=center;verticalAlign=middle;whiteSpace=wrap;rounded=0;" parent="1" vertex="1">
          <mxGeometry x="450" y="450" width="60" height="30" as="geometry" />
        </mxCell>
        <mxCell id="nGJVegaLEnlhwHrPuXhA-122" value="&lt;font style=&quot;font-size: 18px;&quot;&gt;1-branch(&lt;u&gt;code&lt;/u&gt;, &lt;b&gt;&lt;font color=&quot;#ffff33&quot;&gt;employeeid&lt;/font&gt;&lt;/b&gt;,name,city,streat, building no)&lt;/font&gt;&lt;div&gt;&lt;div&gt;&lt;span style=&quot;font-size: 18px; background-color: initial;&quot;&gt;2- test(&lt;/span&gt;&lt;u style=&quot;font-size: 18px; background-color: initial;&quot;&gt;code&lt;/u&gt;&lt;span style=&quot;font-size: 18px; background-color: initial;&quot;&gt;, name,cost,duration)&lt;/span&gt;&lt;div&gt;&lt;font style=&quot;font-size: 18px;&quot;&gt;3-patient(&lt;u&gt;id&lt;/u&gt;,fname,lname,date of birth, chronic disease,mobile no,gender)&lt;/font&gt;&lt;/div&gt;&lt;/div&gt;&lt;div&gt;&lt;font style=&quot;font-size: 18px;&quot;&gt;4-employ(&lt;u&gt;id&lt;/u&gt;,&lt;font color=&quot;#f2df07&quot;&gt;&lt;b&gt;managerid&lt;/b&gt;&lt;/font&gt;,&lt;font color=&quot;#c5dd08&quot;&gt;&lt;b&gt;branchid&lt;/b&gt;&lt;/font&gt;,fname,lname,salary,team,start time,end time)&lt;/font&gt;&lt;/div&gt;&lt;div&gt;&lt;font style=&quot;font-size: 18px;&quot;&gt;5-test-performend(&lt;u&gt;testid,patientid,branchid&lt;/u&gt;,date,time of performing test)&lt;/font&gt;&lt;/div&gt;&lt;/div&gt;&lt;div&gt;&lt;font style=&quot;font-size: 18px;&quot;&gt;6-provide(&lt;u&gt;testid,branchid&lt;/u&gt;)&lt;/font&gt;&lt;/div&gt;" style="text;html=1;align=left;verticalAlign=middle;whiteSpace=wrap;rounded=0;" parent="1" vertex="1">
          <mxGeometry x="90" y="730" width="680" height="30" as="geometry" />
        </mxCell>
        <mxCell id="nGJVegaLEnlhwHrPuXhA-123" value="" style="shape=link;html=1;rounded=0;entryX=1;entryY=0.5;entryDx=0;entryDy=0;exitX=0;exitY=0.5;exitDx=0;exitDy=0;" parent="1" source="nGJVegaLEnlhwHrPuXhA-97" target="nGJVegaLEnlhwHrPuXhA-1" edge="1">
          <mxGeometry width="100" relative="1" as="geometry">
            <mxPoint x="430" y="470" as="sourcePoint" />
            <mxPoint x="530" y="470" as="targetPoint" />
          </mxGeometry>
        </mxCell>
        <mxCell id="3fPynKDSk1pNUGTiqi3N-1" value="" style="shape=link;html=1;rounded=0;exitX=1;exitY=0.5;exitDx=0;exitDy=0;" edge="1" parent="1" source="nGJVegaLEnlhwHrPuXhA-15">
          <mxGeometry width="100" relative="1" as="geometry">
            <mxPoint x="460" y="380" as="sourcePoint" />
            <mxPoint x="290" y="470" as="targetPoint" />
          </mxGeometry>
        </mxCell>
        <mxCell id="9d6io1v2Oos_bcZKiyAw-1" value="" style="shape=link;html=1;rounded=0;exitX=1;exitY=1;exitDx=0;exitDy=0;entryX=0;entryY=0.5;entryDx=0;entryDy=0;" edge="1" parent="1" source="nGJVegaLEnlhwHrPuXhA-83" target="nGJVegaLEnlhwHrPuXhA-46">
          <mxGeometry width="100" relative="1" as="geometry">
            <mxPoint x="460" y="320" as="sourcePoint" />
            <mxPoint x="560" y="320" as="targetPoint" />
          </mxGeometry>
        </mxCell>
        <mxCell id="9d6io1v2Oos_bcZKiyAw-2" value="" style="shape=link;html=1;rounded=0;exitX=0.6;exitY=-0.258;exitDx=0;exitDy=0;exitPerimeter=0;entryX=0;entryY=0.5;entryDx=0;entryDy=0;" edge="1" parent="1" source="nGJVegaLEnlhwHrPuXhA-80" target="nGJVegaLEnlhwHrPuXhA-27">
          <mxGeometry width="100" relative="1" as="geometry">
            <mxPoint x="460" y="320" as="sourcePoint" />
            <mxPoint x="560" y="320" as="targetPoint" />
          </mxGeometry>
        </mxCell>
      </root>
    </mxGraphModel>
  </diagram>
  <diagram id="S6C5gv-EvpcR858EUBxi" name="take-away restaurant">
    <mxGraphModel dx="1050" dy="629" grid="1" gridSize="10" guides="1" tooltips="1" connect="1" arrows="1" fold="1" page="1" pageScale="1" pageWidth="850" pageHeight="1100" math="0" shadow="0">
      <root>
        <mxCell id="0" />
        <mxCell id="1" parent="0" />
        <mxCell id="ElWxshDjS4mOQ-qWsV00-1" value="branch" style="rounded=0;whiteSpace=wrap;html=1;" vertex="1" parent="1">
          <mxGeometry x="120" y="190" width="80" height="30" as="geometry" />
        </mxCell>
        <mxCell id="ElWxshDjS4mOQ-qWsV00-2" value="contact number" style="ellipse;whiteSpace=wrap;html=1;" vertex="1" parent="1">
          <mxGeometry y="250" width="100" height="60" as="geometry" />
        </mxCell>
        <mxCell id="ElWxshDjS4mOQ-qWsV00-3" value="address" style="ellipse;whiteSpace=wrap;html=1;" vertex="1" parent="1">
          <mxGeometry x="15" y="200" width="70" height="40" as="geometry" />
        </mxCell>
        <mxCell id="ElWxshDjS4mOQ-qWsV00-4" value="&lt;u&gt;id&lt;/u&gt;" style="ellipse;whiteSpace=wrap;html=1;" vertex="1" parent="1">
          <mxGeometry x="30" y="170" width="40" height="20" as="geometry" />
        </mxCell>
        <mxCell id="ElWxshDjS4mOQ-qWsV00-5" value="" style="endArrow=none;html=1;rounded=0;exitX=1;exitY=0.5;exitDx=0;exitDy=0;entryX=0;entryY=0.25;entryDx=0;entryDy=0;" edge="1" parent="1" source="ElWxshDjS4mOQ-qWsV00-4" target="ElWxshDjS4mOQ-qWsV00-1">
          <mxGeometry width="50" height="50" relative="1" as="geometry">
            <mxPoint x="400" y="340" as="sourcePoint" />
            <mxPoint x="450" y="290" as="targetPoint" />
          </mxGeometry>
        </mxCell>
        <mxCell id="ElWxshDjS4mOQ-qWsV00-6" value="" style="endArrow=none;html=1;rounded=0;exitX=1;exitY=0.5;exitDx=0;exitDy=0;entryX=0;entryY=0.5;entryDx=0;entryDy=0;" edge="1" parent="1" source="ElWxshDjS4mOQ-qWsV00-3" target="ElWxshDjS4mOQ-qWsV00-1">
          <mxGeometry width="50" height="50" relative="1" as="geometry">
            <mxPoint x="400" y="340" as="sourcePoint" />
            <mxPoint x="450" y="290" as="targetPoint" />
          </mxGeometry>
        </mxCell>
        <mxCell id="ElWxshDjS4mOQ-qWsV00-7" value="" style="endArrow=none;html=1;rounded=0;exitX=1;exitY=0;exitDx=0;exitDy=0;entryX=0;entryY=0.75;entryDx=0;entryDy=0;" edge="1" parent="1" source="ElWxshDjS4mOQ-qWsV00-2" target="ElWxshDjS4mOQ-qWsV00-1">
          <mxGeometry width="50" height="50" relative="1" as="geometry">
            <mxPoint x="400" y="340" as="sourcePoint" />
            <mxPoint x="450" y="290" as="targetPoint" />
          </mxGeometry>
        </mxCell>
        <mxCell id="ElWxshDjS4mOQ-qWsV00-8" value="staff member" style="rounded=0;whiteSpace=wrap;html=1;" vertex="1" parent="1">
          <mxGeometry x="140" y="430" width="90" height="40" as="geometry" />
        </mxCell>
        <mxCell id="ElWxshDjS4mOQ-qWsV00-9" value="fname" style="ellipse;whiteSpace=wrap;html=1;" vertex="1" parent="1">
          <mxGeometry x="40" y="420" width="60" height="40" as="geometry" />
        </mxCell>
        <mxCell id="ElWxshDjS4mOQ-qWsV00-10" value="address" style="ellipse;whiteSpace=wrap;html=1;" vertex="1" parent="1">
          <mxGeometry x="40" y="460" width="60" height="40" as="geometry" />
        </mxCell>
        <mxCell id="ElWxshDjS4mOQ-qWsV00-11" value="&lt;u&gt;id&lt;/u&gt;" style="ellipse;whiteSpace=wrap;html=1;" vertex="1" parent="1">
          <mxGeometry x="50" y="380" width="40" height="20" as="geometry" />
        </mxCell>
        <mxCell id="ElWxshDjS4mOQ-qWsV00-13" value="region" style="ellipse;whiteSpace=wrap;html=1;" vertex="1" parent="1">
          <mxGeometry x="70" y="510" width="40" height="20" as="geometry" />
        </mxCell>
        <mxCell id="ElWxshDjS4mOQ-qWsV00-14" value="city" style="ellipse;whiteSpace=wrap;html=1;" vertex="1" parent="1">
          <mxGeometry x="20" y="510" width="40" height="20" as="geometry" />
        </mxCell>
        <mxCell id="ElWxshDjS4mOQ-qWsV00-16" value="" style="endArrow=none;html=1;rounded=0;exitX=0.5;exitY=0;exitDx=0;exitDy=0;entryX=0;entryY=1;entryDx=0;entryDy=0;" edge="1" parent="1" source="ElWxshDjS4mOQ-qWsV00-14" target="ElWxshDjS4mOQ-qWsV00-10">
          <mxGeometry width="50" height="50" relative="1" as="geometry">
            <mxPoint x="330" y="340" as="sourcePoint" />
            <mxPoint x="380" y="290" as="targetPoint" />
          </mxGeometry>
        </mxCell>
        <mxCell id="ElWxshDjS4mOQ-qWsV00-17" value="" style="endArrow=none;html=1;rounded=0;exitX=0.5;exitY=0;exitDx=0;exitDy=0;entryX=1;entryY=1;entryDx=0;entryDy=0;" edge="1" parent="1" source="ElWxshDjS4mOQ-qWsV00-13" target="ElWxshDjS4mOQ-qWsV00-10">
          <mxGeometry width="50" height="50" relative="1" as="geometry">
            <mxPoint x="330" y="340" as="sourcePoint" />
            <mxPoint x="380" y="290" as="targetPoint" />
          </mxGeometry>
        </mxCell>
        <mxCell id="ElWxshDjS4mOQ-qWsV00-18" value="" style="endArrow=none;html=1;rounded=0;exitX=1;exitY=0.5;exitDx=0;exitDy=0;entryX=0;entryY=0.5;entryDx=0;entryDy=0;" edge="1" parent="1" source="ElWxshDjS4mOQ-qWsV00-9" target="ElWxshDjS4mOQ-qWsV00-8">
          <mxGeometry width="50" height="50" relative="1" as="geometry">
            <mxPoint x="330" y="340" as="sourcePoint" />
            <mxPoint x="380" y="290" as="targetPoint" />
          </mxGeometry>
        </mxCell>
        <mxCell id="ElWxshDjS4mOQ-qWsV00-19" value="" style="endArrow=none;html=1;rounded=0;exitX=1;exitY=0.5;exitDx=0;exitDy=0;entryX=0;entryY=0.25;entryDx=0;entryDy=0;" edge="1" parent="1" source="ElWxshDjS4mOQ-qWsV00-11" target="ElWxshDjS4mOQ-qWsV00-8">
          <mxGeometry width="50" height="50" relative="1" as="geometry">
            <mxPoint x="330" y="340" as="sourcePoint" />
            <mxPoint x="380" y="290" as="targetPoint" />
          </mxGeometry>
        </mxCell>
        <mxCell id="ElWxshDjS4mOQ-qWsV00-20" value="" style="endArrow=none;html=1;rounded=0;exitX=1;exitY=0.5;exitDx=0;exitDy=0;" edge="1" parent="1" source="ElWxshDjS4mOQ-qWsV00-10">
          <mxGeometry width="50" height="50" relative="1" as="geometry">
            <mxPoint x="330" y="340" as="sourcePoint" />
            <mxPoint x="140" y="460" as="targetPoint" />
          </mxGeometry>
        </mxCell>
        <mxCell id="ElWxshDjS4mOQ-qWsV00-21" value="salary" style="ellipse;whiteSpace=wrap;html=1;" vertex="1" parent="1">
          <mxGeometry x="210" y="520" width="50" height="40" as="geometry" />
        </mxCell>
        <mxCell id="ElWxshDjS4mOQ-qWsV00-22" value="joining date" style="ellipse;whiteSpace=wrap;html=1;" vertex="1" parent="1">
          <mxGeometry x="100" y="530" width="70" height="40" as="geometry" />
        </mxCell>
        <mxCell id="ElWxshDjS4mOQ-qWsV00-23" value="role" style="ellipse;whiteSpace=wrap;html=1;" vertex="1" parent="1">
          <mxGeometry x="170" y="520" width="40" height="20" as="geometry" />
        </mxCell>
        <mxCell id="ElWxshDjS4mOQ-qWsV00-24" value="" style="endArrow=none;html=1;rounded=0;exitX=0.5;exitY=0;exitDx=0;exitDy=0;entryX=0.25;entryY=1;entryDx=0;entryDy=0;" edge="1" parent="1" source="ElWxshDjS4mOQ-qWsV00-22" target="ElWxshDjS4mOQ-qWsV00-8">
          <mxGeometry width="50" height="50" relative="1" as="geometry">
            <mxPoint x="330" y="340" as="sourcePoint" />
            <mxPoint x="380" y="290" as="targetPoint" />
          </mxGeometry>
        </mxCell>
        <mxCell id="ElWxshDjS4mOQ-qWsV00-25" value="" style="endArrow=none;html=1;rounded=0;exitX=0.5;exitY=0;exitDx=0;exitDy=0;entryX=0.5;entryY=1;entryDx=0;entryDy=0;" edge="1" parent="1" source="ElWxshDjS4mOQ-qWsV00-23" target="ElWxshDjS4mOQ-qWsV00-8">
          <mxGeometry width="50" height="50" relative="1" as="geometry">
            <mxPoint x="330" y="340" as="sourcePoint" />
            <mxPoint x="380" y="290" as="targetPoint" />
          </mxGeometry>
        </mxCell>
        <mxCell id="ElWxshDjS4mOQ-qWsV00-26" value="" style="endArrow=none;html=1;rounded=0;exitX=0.5;exitY=0;exitDx=0;exitDy=0;entryX=0.75;entryY=1;entryDx=0;entryDy=0;" edge="1" parent="1" source="ElWxshDjS4mOQ-qWsV00-21" target="ElWxshDjS4mOQ-qWsV00-8">
          <mxGeometry width="50" height="50" relative="1" as="geometry">
            <mxPoint x="330" y="340" as="sourcePoint" />
            <mxPoint x="380" y="290" as="targetPoint" />
          </mxGeometry>
        </mxCell>
        <mxCell id="ElWxshDjS4mOQ-qWsV00-27" value="Customer" style="rounded=0;whiteSpace=wrap;html=1;" vertex="1" parent="1">
          <mxGeometry x="390" y="450" width="80" height="30" as="geometry" />
        </mxCell>
        <mxCell id="ElWxshDjS4mOQ-qWsV00-28" value="&lt;u&gt;code&lt;/u&gt;" style="ellipse;whiteSpace=wrap;html=1;" vertex="1" parent="1">
          <mxGeometry x="370" y="505" width="50" height="30" as="geometry" />
        </mxCell>
        <mxCell id="ElWxshDjS4mOQ-qWsV00-29" value="contact number" style="ellipse;whiteSpace=wrap;html=1;" vertex="1" parent="1">
          <mxGeometry x="480" y="500" width="90" height="40" as="geometry" />
        </mxCell>
        <mxCell id="ElWxshDjS4mOQ-qWsV00-30" value="name" style="ellipse;whiteSpace=wrap;html=1;" vertex="1" parent="1">
          <mxGeometry x="425" y="515" width="50" height="20" as="geometry" />
        </mxCell>
        <mxCell id="ElWxshDjS4mOQ-qWsV00-31" value="" style="endArrow=none;html=1;rounded=0;exitX=0.5;exitY=0;exitDx=0;exitDy=0;entryX=0.25;entryY=1;entryDx=0;entryDy=0;" edge="1" parent="1" source="ElWxshDjS4mOQ-qWsV00-28" target="ElWxshDjS4mOQ-qWsV00-27">
          <mxGeometry width="50" height="50" relative="1" as="geometry">
            <mxPoint x="330" y="340" as="sourcePoint" />
            <mxPoint x="380" y="290" as="targetPoint" />
          </mxGeometry>
        </mxCell>
        <mxCell id="ElWxshDjS4mOQ-qWsV00-32" value="" style="endArrow=none;html=1;rounded=0;exitX=0.5;exitY=0;exitDx=0;exitDy=0;" edge="1" parent="1" source="ElWxshDjS4mOQ-qWsV00-30">
          <mxGeometry width="50" height="50" relative="1" as="geometry">
            <mxPoint x="330" y="340" as="sourcePoint" />
            <mxPoint x="430" y="480" as="targetPoint" />
          </mxGeometry>
        </mxCell>
        <mxCell id="ElWxshDjS4mOQ-qWsV00-33" value="" style="endArrow=none;html=1;rounded=0;exitX=0.373;exitY=-0.025;exitDx=0;exitDy=0;exitPerimeter=0;entryX=0.895;entryY=1.073;entryDx=0;entryDy=0;entryPerimeter=0;" edge="1" parent="1" source="ElWxshDjS4mOQ-qWsV00-29" target="ElWxshDjS4mOQ-qWsV00-27">
          <mxGeometry width="50" height="50" relative="1" as="geometry">
            <mxPoint x="330" y="340" as="sourcePoint" />
            <mxPoint x="380" y="290" as="targetPoint" />
          </mxGeometry>
        </mxCell>
        <mxCell id="ElWxshDjS4mOQ-qWsV00-34" value="Menu" style="rounded=0;whiteSpace=wrap;html=1;" vertex="1" parent="1">
          <mxGeometry x="290" y="115" width="70" height="30" as="geometry" />
        </mxCell>
        <mxCell id="ElWxshDjS4mOQ-qWsV00-35" value="price" style="ellipse;whiteSpace=wrap;html=1;" vertex="1" parent="1">
          <mxGeometry x="370" y="85" width="40" height="20" as="geometry" />
        </mxCell>
        <mxCell id="ElWxshDjS4mOQ-qWsV00-36" value="name" style="ellipse;whiteSpace=wrap;html=1;" vertex="1" parent="1">
          <mxGeometry x="320" y="75" width="50" height="20" as="geometry" />
        </mxCell>
        <mxCell id="ElWxshDjS4mOQ-qWsV00-37" value="&lt;u&gt;code&lt;/u&gt;" style="ellipse;whiteSpace=wrap;html=1;" vertex="1" parent="1">
          <mxGeometry x="260" y="70" width="50" height="30" as="geometry" />
        </mxCell>
        <mxCell id="ElWxshDjS4mOQ-qWsV00-39" value="item catagory" style="ellipse;whiteSpace=wrap;html=1;" vertex="1" parent="1">
          <mxGeometry x="380" y="115" width="80" height="30" as="geometry" />
        </mxCell>
        <mxCell id="ElWxshDjS4mOQ-qWsV00-40" value="" style="endArrow=none;html=1;rounded=0;entryX=0;entryY=0;entryDx=0;entryDy=0;exitX=0.336;exitY=0.947;exitDx=0;exitDy=0;exitPerimeter=0;" edge="1" parent="1" source="ElWxshDjS4mOQ-qWsV00-37" target="ElWxshDjS4mOQ-qWsV00-34">
          <mxGeometry width="50" height="50" relative="1" as="geometry">
            <mxPoint x="170" y="265" as="sourcePoint" />
            <mxPoint x="220" y="215" as="targetPoint" />
          </mxGeometry>
        </mxCell>
        <mxCell id="ElWxshDjS4mOQ-qWsV00-41" value="" style="endArrow=none;html=1;rounded=0;entryX=0.669;entryY=0.007;entryDx=0;entryDy=0;entryPerimeter=0;" edge="1" parent="1" target="ElWxshDjS4mOQ-qWsV00-34">
          <mxGeometry width="50" height="50" relative="1" as="geometry">
            <mxPoint x="350" y="95" as="sourcePoint" />
            <mxPoint x="220" y="215" as="targetPoint" />
          </mxGeometry>
        </mxCell>
        <mxCell id="ElWxshDjS4mOQ-qWsV00-42" value="" style="endArrow=none;html=1;rounded=0;entryX=1;entryY=0.25;entryDx=0;entryDy=0;exitX=0;exitY=1;exitDx=0;exitDy=0;" edge="1" parent="1" source="ElWxshDjS4mOQ-qWsV00-35" target="ElWxshDjS4mOQ-qWsV00-34">
          <mxGeometry width="50" height="50" relative="1" as="geometry">
            <mxPoint x="170" y="265" as="sourcePoint" />
            <mxPoint x="220" y="215" as="targetPoint" />
          </mxGeometry>
        </mxCell>
        <mxCell id="ElWxshDjS4mOQ-qWsV00-43" value="" style="endArrow=none;html=1;rounded=0;entryX=1;entryY=0.75;entryDx=0;entryDy=0;exitX=0;exitY=1;exitDx=0;exitDy=0;" edge="1" parent="1" source="ElWxshDjS4mOQ-qWsV00-39" target="ElWxshDjS4mOQ-qWsV00-34">
          <mxGeometry width="50" height="50" relative="1" as="geometry">
            <mxPoint x="170" y="265" as="sourcePoint" />
            <mxPoint x="220" y="215" as="targetPoint" />
          </mxGeometry>
        </mxCell>
        <mxCell id="ElWxshDjS4mOQ-qWsV00-44" value="order" style="rounded=0;whiteSpace=wrap;html=1;" vertex="1" parent="1">
          <mxGeometry x="520" y="245" width="80" height="30" as="geometry" />
        </mxCell>
        <mxCell id="ElWxshDjS4mOQ-qWsV00-45" value="&lt;u&gt;id&lt;/u&gt;" style="ellipse;whiteSpace=wrap;html=1;" vertex="1" parent="1">
          <mxGeometry x="530" y="190" width="40" height="20" as="geometry" />
        </mxCell>
        <mxCell id="ElWxshDjS4mOQ-qWsV00-46" value="address" style="ellipse;whiteSpace=wrap;html=1;" vertex="1" parent="1">
          <mxGeometry x="580" y="190" width="50" height="30" as="geometry" />
        </mxCell>
        <mxCell id="ElWxshDjS4mOQ-qWsV00-47" value="total bill" style="ellipse;whiteSpace=wrap;html=1;" vertex="1" parent="1">
          <mxGeometry x="650" y="200" width="70" height="20" as="geometry" />
        </mxCell>
        <mxCell id="ElWxshDjS4mOQ-qWsV00-48" value="item ordered" style="ellipse;whiteSpace=wrap;html=1;" vertex="1" parent="1">
          <mxGeometry x="650" y="220" width="90" height="30" as="geometry" />
        </mxCell>
        <mxCell id="ElWxshDjS4mOQ-qWsV00-49" value="" style="endArrow=none;html=1;rounded=0;exitX=0.09;exitY=-0.067;exitDx=0;exitDy=0;entryX=0.5;entryY=1;entryDx=0;entryDy=0;exitPerimeter=0;" edge="1" parent="1" source="ElWxshDjS4mOQ-qWsV00-44" target="ElWxshDjS4mOQ-qWsV00-45">
          <mxGeometry width="50" height="50" relative="1" as="geometry">
            <mxPoint x="290" y="245" as="sourcePoint" />
            <mxPoint x="340" y="195" as="targetPoint" />
          </mxGeometry>
        </mxCell>
        <mxCell id="ElWxshDjS4mOQ-qWsV00-50" value="" style="endArrow=none;html=1;rounded=0;exitX=0.25;exitY=0;exitDx=0;exitDy=0;entryX=0;entryY=0.5;entryDx=0;entryDy=0;" edge="1" parent="1" source="ElWxshDjS4mOQ-qWsV00-44" target="ElWxshDjS4mOQ-qWsV00-46">
          <mxGeometry width="50" height="50" relative="1" as="geometry">
            <mxPoint x="290" y="245" as="sourcePoint" />
            <mxPoint x="340" y="195" as="targetPoint" />
          </mxGeometry>
        </mxCell>
        <mxCell id="ElWxshDjS4mOQ-qWsV00-51" value="" style="endArrow=none;html=1;rounded=0;exitX=0.5;exitY=0;exitDx=0;exitDy=0;entryX=0;entryY=0.5;entryDx=0;entryDy=0;" edge="1" parent="1" source="ElWxshDjS4mOQ-qWsV00-44" target="ElWxshDjS4mOQ-qWsV00-47">
          <mxGeometry width="50" height="50" relative="1" as="geometry">
            <mxPoint x="290" y="245" as="sourcePoint" />
            <mxPoint x="340" y="195" as="targetPoint" />
          </mxGeometry>
        </mxCell>
        <mxCell id="ElWxshDjS4mOQ-qWsV00-52" value="" style="endArrow=none;html=1;rounded=0;exitX=0;exitY=1;exitDx=0;exitDy=0;entryX=1;entryY=0;entryDx=0;entryDy=0;" edge="1" parent="1" source="ElWxshDjS4mOQ-qWsV00-48" target="ElWxshDjS4mOQ-qWsV00-44">
          <mxGeometry width="50" height="50" relative="1" as="geometry">
            <mxPoint x="290" y="245" as="sourcePoint" />
            <mxPoint x="340" y="195" as="targetPoint" />
          </mxGeometry>
        </mxCell>
        <mxCell id="ElWxshDjS4mOQ-qWsV00-53" value="time" style="ellipse;whiteSpace=wrap;html=1;" vertex="1" parent="1">
          <mxGeometry x="620" y="270" width="50" height="20" as="geometry" />
        </mxCell>
        <mxCell id="ElWxshDjS4mOQ-qWsV00-54" value="date" style="ellipse;whiteSpace=wrap;html=1;" vertex="1" parent="1">
          <mxGeometry x="680" y="250" width="60" height="30" as="geometry" />
        </mxCell>
        <mxCell id="ElWxshDjS4mOQ-qWsV00-56" value="" style="endArrow=none;html=1;rounded=0;entryX=1;entryY=0.5;entryDx=0;entryDy=0;exitX=0;exitY=0.5;exitDx=0;exitDy=0;" edge="1" parent="1" source="ElWxshDjS4mOQ-qWsV00-54" target="ElWxshDjS4mOQ-qWsV00-44">
          <mxGeometry width="50" height="50" relative="1" as="geometry">
            <mxPoint x="290" y="245" as="sourcePoint" />
            <mxPoint x="340" y="195" as="targetPoint" />
          </mxGeometry>
        </mxCell>
        <mxCell id="ElWxshDjS4mOQ-qWsV00-57" value="" style="endArrow=none;html=1;rounded=0;exitX=0.36;exitY=-0.09;exitDx=0;exitDy=0;exitPerimeter=0;entryX=1;entryY=0.75;entryDx=0;entryDy=0;" edge="1" parent="1" source="ElWxshDjS4mOQ-qWsV00-53" target="ElWxshDjS4mOQ-qWsV00-44">
          <mxGeometry width="50" height="50" relative="1" as="geometry">
            <mxPoint x="290" y="245" as="sourcePoint" />
            <mxPoint x="340" y="195" as="targetPoint" />
          </mxGeometry>
        </mxCell>
        <mxCell id="ElWxshDjS4mOQ-qWsV00-59" value="delivery boy" style="rounded=0;whiteSpace=wrap;html=1;" vertex="1" parent="1">
          <mxGeometry x="580" y="380" width="80" height="20" as="geometry" />
        </mxCell>
        <mxCell id="ElWxshDjS4mOQ-qWsV00-60" value="name" style="ellipse;whiteSpace=wrap;html=1;" vertex="1" parent="1">
          <mxGeometry x="690" y="410" width="60" height="30" as="geometry" />
        </mxCell>
        <mxCell id="ElWxshDjS4mOQ-qWsV00-61" value="Contact no" style="ellipse;whiteSpace=wrap;html=1;" vertex="1" parent="1">
          <mxGeometry x="700" y="380" width="70" height="20" as="geometry" />
        </mxCell>
        <mxCell id="ElWxshDjS4mOQ-qWsV00-62" value="&lt;u&gt;id&lt;/u&gt;" style="ellipse;whiteSpace=wrap;html=1;" vertex="1" parent="1">
          <mxGeometry x="690" y="350" width="50" height="20" as="geometry" />
        </mxCell>
        <mxCell id="ElWxshDjS4mOQ-qWsV00-63" value="" style="endArrow=none;html=1;rounded=0;exitX=1;exitY=0;exitDx=0;exitDy=0;entryX=0;entryY=0.5;entryDx=0;entryDy=0;" edge="1" parent="1" source="ElWxshDjS4mOQ-qWsV00-59" target="ElWxshDjS4mOQ-qWsV00-62">
          <mxGeometry width="50" height="50" relative="1" as="geometry">
            <mxPoint x="330" y="340" as="sourcePoint" />
            <mxPoint x="380" y="290" as="targetPoint" />
          </mxGeometry>
        </mxCell>
        <mxCell id="ElWxshDjS4mOQ-qWsV00-64" value="" style="endArrow=none;html=1;rounded=0;exitX=1;exitY=0.5;exitDx=0;exitDy=0;entryX=0;entryY=0.5;entryDx=0;entryDy=0;" edge="1" parent="1" source="ElWxshDjS4mOQ-qWsV00-59" target="ElWxshDjS4mOQ-qWsV00-61">
          <mxGeometry width="50" height="50" relative="1" as="geometry">
            <mxPoint x="330" y="340" as="sourcePoint" />
            <mxPoint x="380" y="290" as="targetPoint" />
          </mxGeometry>
        </mxCell>
        <mxCell id="ElWxshDjS4mOQ-qWsV00-65" value="" style="endArrow=none;html=1;rounded=0;exitX=0.92;exitY=0.87;exitDx=0;exitDy=0;exitPerimeter=0;entryX=0;entryY=0;entryDx=0;entryDy=0;" edge="1" parent="1" source="ElWxshDjS4mOQ-qWsV00-59" target="ElWxshDjS4mOQ-qWsV00-60">
          <mxGeometry width="50" height="50" relative="1" as="geometry">
            <mxPoint x="330" y="340" as="sourcePoint" />
            <mxPoint x="380" y="290" as="targetPoint" />
          </mxGeometry>
        </mxCell>
        <mxCell id="ElWxshDjS4mOQ-qWsV00-66" value="age" style="ellipse;whiteSpace=wrap;html=1;" vertex="1" parent="1">
          <mxGeometry x="260" y="490" width="50" height="30" as="geometry" />
        </mxCell>
        <mxCell id="ElWxshDjS4mOQ-qWsV00-67" value="" style="endArrow=none;html=1;rounded=0;exitX=1;exitY=0.75;exitDx=0;exitDy=0;entryX=0;entryY=0;entryDx=0;entryDy=0;" edge="1" parent="1" source="ElWxshDjS4mOQ-qWsV00-8" target="ElWxshDjS4mOQ-qWsV00-66">
          <mxGeometry width="50" height="50" relative="1" as="geometry">
            <mxPoint x="330" y="340" as="sourcePoint" />
            <mxPoint x="380" y="290" as="targetPoint" />
          </mxGeometry>
        </mxCell>
        <mxCell id="ElWxshDjS4mOQ-qWsV00-68" value="work" style="rhombus;whiteSpace=wrap;html=1;" vertex="1" parent="1">
          <mxGeometry x="110" y="300" width="40" height="50" as="geometry" />
        </mxCell>
        <mxCell id="ElWxshDjS4mOQ-qWsV00-69" value="ordered" style="rhombus;whiteSpace=wrap;html=1;" vertex="1" parent="1">
          <mxGeometry x="460" y="350" width="50" height="50" as="geometry" />
        </mxCell>
        <mxCell id="ElWxshDjS4mOQ-qWsV00-70" value="" style="shape=link;html=1;rounded=0;exitX=0;exitY=1;exitDx=0;exitDy=0;" edge="1" parent="1" source="ElWxshDjS4mOQ-qWsV00-44">
          <mxGeometry width="100" relative="1" as="geometry">
            <mxPoint x="310" y="320" as="sourcePoint" />
            <mxPoint x="485" y="350" as="targetPoint" />
          </mxGeometry>
        </mxCell>
        <mxCell id="ElWxshDjS4mOQ-qWsV00-72" value="M" style="text;html=1;align=center;verticalAlign=middle;whiteSpace=wrap;rounded=0;" vertex="1" parent="1">
          <mxGeometry x="500" y="330" width="20" height="30" as="geometry" />
        </mxCell>
        <mxCell id="ElWxshDjS4mOQ-qWsV00-73" value="" style="endArrow=none;html=1;rounded=0;exitX=0.75;exitY=0;exitDx=0;exitDy=0;entryX=0;entryY=0.5;entryDx=0;entryDy=0;" edge="1" parent="1" source="ElWxshDjS4mOQ-qWsV00-27" target="ElWxshDjS4mOQ-qWsV00-69">
          <mxGeometry width="50" height="50" relative="1" as="geometry">
            <mxPoint x="330" y="340" as="sourcePoint" />
            <mxPoint x="380" y="290" as="targetPoint" />
          </mxGeometry>
        </mxCell>
        <mxCell id="ElWxshDjS4mOQ-qWsV00-75" value="1" style="text;html=1;align=center;verticalAlign=middle;whiteSpace=wrap;rounded=0;" vertex="1" parent="1">
          <mxGeometry x="460" y="390" width="20" height="30" as="geometry" />
        </mxCell>
        <mxCell id="ElWxshDjS4mOQ-qWsV00-76" value="Manage" style="rhombus;whiteSpace=wrap;html=1;" vertex="1" parent="1">
          <mxGeometry x="180" y="300" width="50" height="50" as="geometry" />
        </mxCell>
        <mxCell id="ElWxshDjS4mOQ-qWsV00-77" value="" style="shape=link;html=1;rounded=0;exitX=0.67;exitY=1.02;exitDx=0;exitDy=0;exitPerimeter=0;" edge="1" parent="1" source="ElWxshDjS4mOQ-qWsV00-1" target="ElWxshDjS4mOQ-qWsV00-76">
          <mxGeometry width="100" relative="1" as="geometry">
            <mxPoint x="310" y="320" as="sourcePoint" />
            <mxPoint x="410" y="320" as="targetPoint" />
          </mxGeometry>
        </mxCell>
        <mxCell id="ElWxshDjS4mOQ-qWsV00-78" value="" style="endArrow=none;html=1;rounded=0;exitX=0.5;exitY=0;exitDx=0;exitDy=0;entryX=0;entryY=1;entryDx=0;entryDy=0;" edge="1" parent="1" source="ElWxshDjS4mOQ-qWsV00-8" target="ElWxshDjS4mOQ-qWsV00-76">
          <mxGeometry width="50" height="50" relative="1" as="geometry">
            <mxPoint x="330" y="340" as="sourcePoint" />
            <mxPoint x="380" y="290" as="targetPoint" />
          </mxGeometry>
        </mxCell>
        <mxCell id="ElWxshDjS4mOQ-qWsV00-79" value="1" style="text;html=1;align=center;verticalAlign=middle;whiteSpace=wrap;rounded=0;" vertex="1" parent="1">
          <mxGeometry x="195" y="350" width="20" height="30" as="geometry" />
        </mxCell>
        <mxCell id="ElWxshDjS4mOQ-qWsV00-80" value="1" style="text;html=1;align=center;verticalAlign=middle;whiteSpace=wrap;rounded=0;" vertex="1" parent="1">
          <mxGeometry x="195" y="270" width="20" height="30" as="geometry" />
        </mxCell>
        <mxCell id="ElWxshDjS4mOQ-qWsV00-81" value="" style="shape=link;html=1;rounded=0;exitX=0.5;exitY=1;exitDx=0;exitDy=0;entryX=0.133;entryY=-0.035;entryDx=0;entryDy=0;entryPerimeter=0;" edge="1" parent="1" source="ElWxshDjS4mOQ-qWsV00-68" target="ElWxshDjS4mOQ-qWsV00-8">
          <mxGeometry width="100" relative="1" as="geometry">
            <mxPoint x="310" y="320" as="sourcePoint" />
            <mxPoint x="410" y="320" as="targetPoint" />
          </mxGeometry>
        </mxCell>
        <mxCell id="ElWxshDjS4mOQ-qWsV00-83" value="" style="shape=link;html=1;rounded=0;entryX=0.25;entryY=1;entryDx=0;entryDy=0;" edge="1" parent="1" target="ElWxshDjS4mOQ-qWsV00-1">
          <mxGeometry width="100" relative="1" as="geometry">
            <mxPoint x="130" y="300" as="sourcePoint" />
            <mxPoint x="410" y="320" as="targetPoint" />
          </mxGeometry>
        </mxCell>
        <mxCell id="ElWxshDjS4mOQ-qWsV00-84" value="M" style="text;html=1;align=center;verticalAlign=middle;whiteSpace=wrap;rounded=0;" vertex="1" parent="1">
          <mxGeometry x="140" y="345" width="20" height="30" as="geometry" />
        </mxCell>
        <mxCell id="ElWxshDjS4mOQ-qWsV00-85" value="1" style="text;html=1;align=center;verticalAlign=middle;whiteSpace=wrap;rounded=0;" vertex="1" parent="1">
          <mxGeometry x="130" y="275" width="20" height="30" as="geometry" />
        </mxCell>
        <mxCell id="ElWxshDjS4mOQ-qWsV00-86" value="contain" style="rhombus;whiteSpace=wrap;html=1;" vertex="1" parent="1">
          <mxGeometry x="380" y="185" width="80" height="40" as="geometry" />
        </mxCell>
        <mxCell id="ElWxshDjS4mOQ-qWsV00-88" value="" style="shape=link;html=1;rounded=0;entryX=0;entryY=0.25;entryDx=0;entryDy=0;exitX=1;exitY=1;exitDx=0;exitDy=0;" edge="1" parent="1" source="ElWxshDjS4mOQ-qWsV00-86" target="ElWxshDjS4mOQ-qWsV00-44">
          <mxGeometry width="100" relative="1" as="geometry">
            <mxPoint x="460" y="205" as="sourcePoint" />
            <mxPoint x="410" y="320" as="targetPoint" />
          </mxGeometry>
        </mxCell>
        <mxCell id="ElWxshDjS4mOQ-qWsV00-89" value="" style="endArrow=none;html=1;rounded=0;exitX=0.75;exitY=1;exitDx=0;exitDy=0;" edge="1" parent="1" source="ElWxshDjS4mOQ-qWsV00-34">
          <mxGeometry width="50" height="50" relative="1" as="geometry">
            <mxPoint x="330" y="340" as="sourcePoint" />
            <mxPoint x="390" y="200" as="targetPoint" />
          </mxGeometry>
        </mxCell>
        <mxCell id="ElWxshDjS4mOQ-qWsV00-90" value="M" style="text;html=1;align=center;verticalAlign=middle;whiteSpace=wrap;rounded=0;" vertex="1" parent="1">
          <mxGeometry x="385" y="165" width="20" height="30" as="geometry" />
        </mxCell>
        <mxCell id="ElWxshDjS4mOQ-qWsV00-91" value="N" style="text;html=1;align=center;verticalAlign=middle;whiteSpace=wrap;rounded=0;" vertex="1" parent="1">
          <mxGeometry x="470" y="200" width="20" height="30" as="geometry" />
        </mxCell>
        <mxCell id="ElWxshDjS4mOQ-qWsV00-92" value="delivers" style="rhombus;whiteSpace=wrap;html=1;" vertex="1" parent="1">
          <mxGeometry x="560" y="305" width="60" height="40" as="geometry" />
        </mxCell>
        <mxCell id="ElWxshDjS4mOQ-qWsV00-93" value="" style="endArrow=none;html=1;rounded=0;entryX=0.75;entryY=1;entryDx=0;entryDy=0;exitX=0.5;exitY=0;exitDx=0;exitDy=0;" edge="1" parent="1" source="ElWxshDjS4mOQ-qWsV00-92" target="ElWxshDjS4mOQ-qWsV00-44">
          <mxGeometry width="50" height="50" relative="1" as="geometry">
            <mxPoint x="330" y="400" as="sourcePoint" />
            <mxPoint x="380" y="350" as="targetPoint" />
          </mxGeometry>
        </mxCell>
        <mxCell id="ElWxshDjS4mOQ-qWsV00-95" value="1" style="text;html=1;align=center;verticalAlign=middle;whiteSpace=wrap;rounded=0;" vertex="1" parent="1">
          <mxGeometry x="600" y="340" width="20" height="30" as="geometry" />
        </mxCell>
        <mxCell id="ElWxshDjS4mOQ-qWsV00-98" value="M" style="text;html=1;align=center;verticalAlign=middle;whiteSpace=wrap;rounded=0;" vertex="1" parent="1">
          <mxGeometry x="570" y="280" width="20" height="30" as="geometry" />
        </mxCell>
        <mxCell id="ElWxshDjS4mOQ-qWsV00-100" value="Provide" style="rhombus;whiteSpace=wrap;html=1;" vertex="1" parent="1">
          <mxGeometry x="150" y="107.5" width="60" height="45" as="geometry" />
        </mxCell>
        <mxCell id="ElWxshDjS4mOQ-qWsV00-101" value="" style="shape=link;html=1;rounded=0;exitX=0.4;exitY=0.007;exitDx=0;exitDy=0;exitPerimeter=0;entryX=0;entryY=1;entryDx=0;entryDy=0;" edge="1" parent="1" source="ElWxshDjS4mOQ-qWsV00-1" target="ElWxshDjS4mOQ-qWsV00-100">
          <mxGeometry width="100" relative="1" as="geometry">
            <mxPoint x="310" y="380" as="sourcePoint" />
            <mxPoint x="410" y="380" as="targetPoint" />
          </mxGeometry>
        </mxCell>
        <mxCell id="ElWxshDjS4mOQ-qWsV00-103" value="" style="endArrow=none;html=1;rounded=0;exitX=0.9;exitY=0.416;exitDx=0;exitDy=0;exitPerimeter=0;entryX=0;entryY=0.5;entryDx=0;entryDy=0;" edge="1" parent="1" source="ElWxshDjS4mOQ-qWsV00-100" target="ElWxshDjS4mOQ-qWsV00-34">
          <mxGeometry width="50" height="50" relative="1" as="geometry">
            <mxPoint x="330" y="400" as="sourcePoint" />
            <mxPoint x="380" y="350" as="targetPoint" />
          </mxGeometry>
        </mxCell>
        <mxCell id="ElWxshDjS4mOQ-qWsV00-104" value="M" style="text;html=1;align=center;verticalAlign=middle;whiteSpace=wrap;rounded=0;" vertex="1" parent="1">
          <mxGeometry x="210" y="100" width="20" height="30" as="geometry" />
        </mxCell>
        <mxCell id="ElWxshDjS4mOQ-qWsV00-105" value="N" style="text;html=1;align=center;verticalAlign=middle;whiteSpace=wrap;rounded=0;" vertex="1" parent="1">
          <mxGeometry x="130" y="140" width="20" height="30" as="geometry" />
        </mxCell>
        <mxCell id="ElWxshDjS4mOQ-qWsV00-107" value="" style="shape=link;html=1;rounded=0;exitX=0.5;exitY=1;exitDx=0;exitDy=0;entryX=0.345;entryY=0.08;entryDx=0;entryDy=0;entryPerimeter=0;" edge="1" parent="1" source="ElWxshDjS4mOQ-qWsV00-92" target="ElWxshDjS4mOQ-qWsV00-59">
          <mxGeometry width="100" relative="1" as="geometry">
            <mxPoint x="310" y="350" as="sourcePoint" />
            <mxPoint x="410" y="350" as="targetPoint" />
          </mxGeometry>
        </mxCell>
        <mxCell id="ElWxshDjS4mOQ-qWsV00-108" value="&lt;div&gt;&lt;font style=&quot;font-size: 18px;&quot;&gt;&lt;br&gt;&lt;/font&gt;&lt;/div&gt;&lt;font style=&quot;font-size: 18px;&quot;&gt;&lt;div&gt;&lt;font style=&quot;font-size: 18px;&quot;&gt;&lt;br&gt;&lt;/font&gt;&lt;/div&gt;&lt;div&gt;&lt;font style=&quot;font-size: 18px;&quot;&gt;&lt;br&gt;&lt;/font&gt;&lt;/div&gt;&lt;div&gt;&lt;font style=&quot;font-size: 18px;&quot;&gt;&lt;br&gt;&lt;/font&gt;&lt;/div&gt;&lt;div&gt;&lt;font style=&quot;font-size: 18px;&quot;&gt;&lt;br&gt;&lt;/font&gt;&lt;/div&gt;&lt;div&gt;&lt;font style=&quot;font-size: 18px;&quot;&gt;&lt;br&gt;&lt;/font&gt;&lt;/div&gt;&lt;div&gt;&lt;font style=&quot;font-size: 18px;&quot;&gt;&lt;br&gt;&lt;/font&gt;&lt;/div&gt;1-branch(&lt;u&gt;id&lt;/u&gt;,&lt;b&gt;&lt;font color=&quot;#e6de05&quot;&gt;managerid&lt;/font&gt;&lt;/b&gt;,address,contact num)&lt;/font&gt;&lt;div&gt;&lt;font size=&quot;3&quot;&gt;2-staff-Member(&lt;u&gt;id&lt;/u&gt;,&lt;b&gt;&lt;font color=&quot;#dfcd0c&quot;&gt;branchid, managerId&lt;/font&gt;&lt;/b&gt;,fname,city,region,joining date,role,salary,age)&lt;/font&gt;&lt;/div&gt;&lt;div&gt;&lt;font size=&quot;3&quot;&gt;3- menu(&lt;u&gt;code&lt;/u&gt;,name,price,item catagory)&lt;/font&gt;&lt;/div&gt;&lt;div&gt;&lt;font size=&quot;3&quot;&gt;4-&lt;font color=&quot;#f20707&quot;&gt;&lt;b&gt;provide(&lt;u&gt;itemid, branchid&lt;/u&gt;)&lt;/b&gt;&lt;/font&gt;&lt;/font&gt;&lt;/div&gt;&lt;div&gt;&lt;font size=&quot;3&quot;&gt;5-order(&lt;u&gt;id&lt;/u&gt;,&lt;font color=&quot;#fae505&quot;&gt;&lt;b&gt;customerid,deliveryid&lt;/b&gt;&lt;/font&gt;,address,total bill,item ordered,date,time)&lt;/font&gt;&lt;/div&gt;&lt;div&gt;&lt;font size=&quot;3&quot;&gt;6-&lt;font color=&quot;#ea1010&quot;&gt;&lt;b&gt;contain(&lt;u&gt;orderid, itemid&lt;/u&gt;)&lt;/b&gt;&lt;/font&gt;&lt;/font&gt;&lt;/div&gt;&lt;div&gt;&lt;font size=&quot;3&quot;&gt;7- customer(&lt;u&gt;code&lt;/u&gt;,name,contact no)&lt;/font&gt;&lt;/div&gt;&lt;div&gt;&lt;font size=&quot;3&quot;&gt;8- delivery-boy(&lt;u&gt;id&lt;/u&gt;, contact no, name)&lt;/font&gt;&lt;/div&gt;&lt;div&gt;&lt;font size=&quot;3&quot;&gt;&lt;br&gt;&lt;/font&gt;&lt;/div&gt;&lt;div&gt;&lt;font size=&quot;3&quot;&gt;&lt;br&gt;&lt;/font&gt;&lt;/div&gt;" style="text;html=1;align=left;verticalAlign=middle;whiteSpace=wrap;rounded=0;" vertex="1" parent="1">
          <mxGeometry x="50" y="610" width="670" height="30" as="geometry" />
        </mxCell>
      </root>
    </mxGraphModel>
  </diagram>
  <diagram id="J5jJzr-YZsUtJKUIb4aa" name="International school">
    <mxGraphModel dx="2163" dy="786" grid="1" gridSize="10" guides="1" tooltips="1" connect="1" arrows="1" fold="1" page="1" pageScale="1" pageWidth="850" pageHeight="1100" math="0" shadow="0">
      <root>
        <mxCell id="0" />
        <mxCell id="1" parent="0" />
        <mxCell id="BBIBPebnaKfFjS6tCGOX-1" value="Application" style="rounded=0;whiteSpace=wrap;html=1;" vertex="1" parent="1">
          <mxGeometry x="90" y="210" width="70" height="30" as="geometry" />
        </mxCell>
        <mxCell id="BBIBPebnaKfFjS6tCGOX-2" value="&lt;u&gt;serial no&lt;/u&gt;" style="ellipse;whiteSpace=wrap;html=1;" vertex="1" parent="1">
          <mxGeometry x="30" y="160" width="70" height="20" as="geometry" />
        </mxCell>
        <mxCell id="BBIBPebnaKfFjS6tCGOX-3" value="dividsion" style="ellipse;whiteSpace=wrap;html=1;" vertex="1" parent="1">
          <mxGeometry y="200" width="80" height="20" as="geometry" />
        </mxCell>
        <mxCell id="BBIBPebnaKfFjS6tCGOX-4" value="" style="endArrow=none;html=1;rounded=0;entryX=1;entryY=1;entryDx=0;entryDy=0;exitX=0.75;exitY=0;exitDx=0;exitDy=0;" edge="1" parent="1" source="BBIBPebnaKfFjS6tCGOX-1" target="BBIBPebnaKfFjS6tCGOX-2">
          <mxGeometry width="50" height="50" relative="1" as="geometry">
            <mxPoint x="400" y="350" as="sourcePoint" />
            <mxPoint x="450" y="300" as="targetPoint" />
          </mxGeometry>
        </mxCell>
        <mxCell id="BBIBPebnaKfFjS6tCGOX-5" value="" style="endArrow=none;html=1;rounded=0;exitX=1;exitY=1;exitDx=0;exitDy=0;entryX=0;entryY=0.75;entryDx=0;entryDy=0;" edge="1" parent="1" source="BBIBPebnaKfFjS6tCGOX-3" target="BBIBPebnaKfFjS6tCGOX-1">
          <mxGeometry width="50" height="50" relative="1" as="geometry">
            <mxPoint x="400" y="350" as="sourcePoint" />
            <mxPoint x="450" y="300" as="targetPoint" />
          </mxGeometry>
        </mxCell>
        <mxCell id="BBIBPebnaKfFjS6tCGOX-8" value="&lt;u&gt;length&lt;/u&gt;" style="ellipse;whiteSpace=wrap;html=1;" vertex="1" parent="1">
          <mxGeometry x="10" y="405" width="70" height="30" as="geometry" />
        </mxCell>
        <mxCell id="BBIBPebnaKfFjS6tCGOX-9" value="&lt;u&gt;weight&lt;/u&gt;" style="ellipse;whiteSpace=wrap;html=1;" vertex="1" parent="1">
          <mxGeometry x="-40" y="380" width="50" height="40" as="geometry" />
        </mxCell>
        <mxCell id="BBIBPebnaKfFjS6tCGOX-10" value="" style="endArrow=none;html=1;rounded=0;exitX=1;exitY=0.5;exitDx=0;exitDy=0;" edge="1" parent="1" source="BBIBPebnaKfFjS6tCGOX-9">
          <mxGeometry width="50" height="50" relative="1" as="geometry">
            <mxPoint x="350" y="345" as="sourcePoint" />
            <mxPoint x="60" y="365" as="targetPoint" />
          </mxGeometry>
        </mxCell>
        <mxCell id="BBIBPebnaKfFjS6tCGOX-11" value="" style="endArrow=none;html=1;rounded=0;exitX=1;exitY=0;exitDx=0;exitDy=0;entryX=0.25;entryY=1;entryDx=0;entryDy=0;" edge="1" parent="1" source="BBIBPebnaKfFjS6tCGOX-8">
          <mxGeometry width="50" height="50" relative="1" as="geometry">
            <mxPoint x="350" y="345" as="sourcePoint" />
            <mxPoint x="82.5" y="375" as="targetPoint" />
          </mxGeometry>
        </mxCell>
        <mxCell id="BBIBPebnaKfFjS6tCGOX-12" value="" style="endArrow=none;html=1;rounded=0;exitX=0.625;exitY=0;exitDx=0;exitDy=0;exitPerimeter=0;entryX=0.631;entryY=1.027;entryDx=0;entryDy=0;entryPerimeter=0;" edge="1" parent="1">
          <mxGeometry width="50" height="50" relative="1" as="geometry">
            <mxPoint x="140" y="415" as="sourcePoint" />
            <mxPoint x="116.78999999999996" y="375.80999999999995" as="targetPoint" />
          </mxGeometry>
        </mxCell>
        <mxCell id="BBIBPebnaKfFjS6tCGOX-13" value="student" style="rounded=0;whiteSpace=wrap;html=1;" vertex="1" parent="1">
          <mxGeometry x="290" y="390" width="70" height="30" as="geometry" />
        </mxCell>
        <mxCell id="BBIBPebnaKfFjS6tCGOX-14" value="email" style="ellipse;whiteSpace=wrap;html=1;" vertex="1" parent="1">
          <mxGeometry x="395" y="500" width="60" height="30" as="geometry" />
        </mxCell>
        <mxCell id="BBIBPebnaKfFjS6tCGOX-15" value="certification" style="ellipse;whiteSpace=wrap;html=1;" vertex="1" parent="1">
          <mxGeometry x="300" y="470" width="70" height="30" as="geometry" />
        </mxCell>
        <mxCell id="BBIBPebnaKfFjS6tCGOX-16" value="date of birth" style="ellipse;whiteSpace=wrap;html=1;" vertex="1" parent="1">
          <mxGeometry x="265" y="500" width="80" height="30" as="geometry" />
        </mxCell>
        <mxCell id="BBIBPebnaKfFjS6tCGOX-17" value="gender" style="ellipse;whiteSpace=wrap;html=1;" vertex="1" parent="1">
          <mxGeometry x="220" y="520" width="60" height="30" as="geometry" />
        </mxCell>
        <mxCell id="BBIBPebnaKfFjS6tCGOX-18" value="age" style="ellipse;whiteSpace=wrap;html=1;dashed=1;" vertex="1" parent="1">
          <mxGeometry x="215" y="480" width="50" height="20" as="geometry" />
        </mxCell>
        <mxCell id="BBIBPebnaKfFjS6tCGOX-19" value="fname" style="ellipse;whiteSpace=wrap;html=1;" vertex="1" parent="1">
          <mxGeometry x="150" y="500" width="60" height="30" as="geometry" />
        </mxCell>
        <mxCell id="BBIBPebnaKfFjS6tCGOX-20" value="&lt;u&gt;serial no&lt;/u&gt;" style="ellipse;whiteSpace=wrap;html=1;" vertex="1" parent="1">
          <mxGeometry x="130" y="470" width="60" height="20" as="geometry" />
        </mxCell>
        <mxCell id="BBIBPebnaKfFjS6tCGOX-21" value="" style="endArrow=none;html=1;rounded=0;exitX=0.5;exitY=0;exitDx=0;exitDy=0;entryX=0;entryY=0.75;entryDx=0;entryDy=0;" edge="1" parent="1" source="BBIBPebnaKfFjS6tCGOX-20" target="BBIBPebnaKfFjS6tCGOX-13">
          <mxGeometry width="50" height="50" relative="1" as="geometry">
            <mxPoint x="400" y="350" as="sourcePoint" />
            <mxPoint x="450" y="300" as="targetPoint" />
          </mxGeometry>
        </mxCell>
        <mxCell id="BBIBPebnaKfFjS6tCGOX-22" value="" style="endArrow=none;html=1;rounded=0;exitX=0.5;exitY=0;exitDx=0;exitDy=0;entryX=0.126;entryY=0.947;entryDx=0;entryDy=0;entryPerimeter=0;" edge="1" parent="1" source="BBIBPebnaKfFjS6tCGOX-19" target="BBIBPebnaKfFjS6tCGOX-13">
          <mxGeometry width="50" height="50" relative="1" as="geometry">
            <mxPoint x="400" y="350" as="sourcePoint" />
            <mxPoint x="450" y="300" as="targetPoint" />
          </mxGeometry>
        </mxCell>
        <mxCell id="BBIBPebnaKfFjS6tCGOX-23" value="" style="endArrow=none;html=1;rounded=0;exitX=0.5;exitY=0;exitDx=0;exitDy=0;" edge="1" parent="1" source="BBIBPebnaKfFjS6tCGOX-18">
          <mxGeometry width="50" height="50" relative="1" as="geometry">
            <mxPoint x="400" y="350" as="sourcePoint" />
            <mxPoint x="310" y="418" as="targetPoint" />
          </mxGeometry>
        </mxCell>
        <mxCell id="BBIBPebnaKfFjS6tCGOX-24" value="" style="endArrow=none;html=1;rounded=0;entryX=0.5;entryY=0;entryDx=0;entryDy=0;" edge="1" parent="1" target="BBIBPebnaKfFjS6tCGOX-17">
          <mxGeometry width="50" height="50" relative="1" as="geometry">
            <mxPoint x="320" y="420" as="sourcePoint" />
            <mxPoint x="450" y="300" as="targetPoint" />
          </mxGeometry>
        </mxCell>
        <mxCell id="BBIBPebnaKfFjS6tCGOX-25" value="" style="endArrow=none;html=1;rounded=0;exitX=0.617;exitY=1;exitDx=0;exitDy=0;entryX=0;entryY=0;entryDx=0;entryDy=0;exitPerimeter=0;" edge="1" parent="1" source="BBIBPebnaKfFjS6tCGOX-13" target="BBIBPebnaKfFjS6tCGOX-16">
          <mxGeometry width="50" height="50" relative="1" as="geometry">
            <mxPoint x="400" y="350" as="sourcePoint" />
            <mxPoint x="450" y="300" as="targetPoint" />
          </mxGeometry>
        </mxCell>
        <mxCell id="BBIBPebnaKfFjS6tCGOX-26" value="" style="endArrow=none;html=1;rounded=0;entryX=0;entryY=0.5;entryDx=0;entryDy=0;" edge="1" parent="1" target="BBIBPebnaKfFjS6tCGOX-15">
          <mxGeometry width="50" height="50" relative="1" as="geometry">
            <mxPoint x="340" y="420" as="sourcePoint" />
            <mxPoint x="450" y="300" as="targetPoint" />
          </mxGeometry>
        </mxCell>
        <mxCell id="BBIBPebnaKfFjS6tCGOX-27" value="" style="endArrow=none;html=1;rounded=0;exitX=0.869;exitY=1;exitDx=0;exitDy=0;entryX=0;entryY=0.5;entryDx=0;entryDy=0;exitPerimeter=0;" edge="1" parent="1" source="BBIBPebnaKfFjS6tCGOX-13" target="BBIBPebnaKfFjS6tCGOX-14">
          <mxGeometry width="50" height="50" relative="1" as="geometry">
            <mxPoint x="400" y="350" as="sourcePoint" />
            <mxPoint x="450" y="300" as="targetPoint" />
          </mxGeometry>
        </mxCell>
        <mxCell id="BBIBPebnaKfFjS6tCGOX-28" value="sibiling discount" style="ellipse;whiteSpace=wrap;html=1;" vertex="1" parent="1">
          <mxGeometry x="410" y="460" width="80" height="30" as="geometry" />
        </mxCell>
        <mxCell id="BBIBPebnaKfFjS6tCGOX-29" value="" style="endArrow=none;html=1;rounded=0;exitX=1;exitY=1;exitDx=0;exitDy=0;entryX=0;entryY=0.5;entryDx=0;entryDy=0;" edge="1" parent="1" source="BBIBPebnaKfFjS6tCGOX-13" target="BBIBPebnaKfFjS6tCGOX-28">
          <mxGeometry width="50" height="50" relative="1" as="geometry">
            <mxPoint x="400" y="350" as="sourcePoint" />
            <mxPoint x="450" y="300" as="targetPoint" />
          </mxGeometry>
        </mxCell>
        <mxCell id="BBIBPebnaKfFjS6tCGOX-30" value="parent" style="rounded=0;whiteSpace=wrap;html=1;" vertex="1" parent="1">
          <mxGeometry x="560" y="370" width="80" height="40" as="geometry" />
        </mxCell>
        <mxCell id="BBIBPebnaKfFjS6tCGOX-31" value="&lt;u&gt;parent id&lt;/u&gt;" style="ellipse;whiteSpace=wrap;html=1;" vertex="1" parent="1">
          <mxGeometry x="550" y="280" width="90" height="30" as="geometry" />
        </mxCell>
        <mxCell id="BBIBPebnaKfFjS6tCGOX-32" value="name" style="ellipse;whiteSpace=wrap;html=1;" vertex="1" parent="1">
          <mxGeometry x="645" y="300" width="70" height="40" as="geometry" />
        </mxCell>
        <mxCell id="BBIBPebnaKfFjS6tCGOX-33" value="relationship" style="ellipse;whiteSpace=wrap;html=1;" vertex="1" parent="1">
          <mxGeometry x="665" y="350" width="80" height="40" as="geometry" />
        </mxCell>
        <mxCell id="BBIBPebnaKfFjS6tCGOX-34" value="" style="endArrow=none;html=1;rounded=0;exitX=0.25;exitY=0;exitDx=0;exitDy=0;entryX=0.5;entryY=1;entryDx=0;entryDy=0;" edge="1" parent="1" source="BBIBPebnaKfFjS6tCGOX-30" target="BBIBPebnaKfFjS6tCGOX-31">
          <mxGeometry width="50" height="50" relative="1" as="geometry">
            <mxPoint x="575" y="550" as="sourcePoint" />
            <mxPoint x="625" y="500" as="targetPoint" />
          </mxGeometry>
        </mxCell>
        <mxCell id="BBIBPebnaKfFjS6tCGOX-35" value="" style="endArrow=none;html=1;rounded=0;exitX=0.75;exitY=0;exitDx=0;exitDy=0;entryX=0;entryY=1;entryDx=0;entryDy=0;" edge="1" parent="1" source="BBIBPebnaKfFjS6tCGOX-30" target="BBIBPebnaKfFjS6tCGOX-32">
          <mxGeometry width="50" height="50" relative="1" as="geometry">
            <mxPoint x="575" y="550" as="sourcePoint" />
            <mxPoint x="625" y="500" as="targetPoint" />
          </mxGeometry>
        </mxCell>
        <mxCell id="BBIBPebnaKfFjS6tCGOX-36" value="" style="endArrow=none;html=1;rounded=0;exitX=1;exitY=0.25;exitDx=0;exitDy=0;entryX=0;entryY=0.5;entryDx=0;entryDy=0;" edge="1" parent="1" source="BBIBPebnaKfFjS6tCGOX-30" target="BBIBPebnaKfFjS6tCGOX-33">
          <mxGeometry width="50" height="50" relative="1" as="geometry">
            <mxPoint x="575" y="550" as="sourcePoint" />
            <mxPoint x="625" y="500" as="targetPoint" />
          </mxGeometry>
        </mxCell>
        <mxCell id="BBIBPebnaKfFjS6tCGOX-37" value="Teacher" style="rounded=0;whiteSpace=wrap;html=1;" vertex="1" parent="1">
          <mxGeometry x="567.5" y="110" width="70" height="30" as="geometry" />
        </mxCell>
        <mxCell id="BBIBPebnaKfFjS6tCGOX-38" value="salary" style="ellipse;whiteSpace=wrap;html=1;" vertex="1" parent="1">
          <mxGeometry x="657.5" y="105" width="55" height="25" as="geometry" />
        </mxCell>
        <mxCell id="BBIBPebnaKfFjS6tCGOX-39" value="email" style="ellipse;whiteSpace=wrap;html=1;" vertex="1" parent="1">
          <mxGeometry x="652.5" y="70" width="60" height="30" as="geometry" />
        </mxCell>
        <mxCell id="BBIBPebnaKfFjS6tCGOX-40" value="phone no" style="ellipse;whiteSpace=wrap;html=1;" vertex="1" parent="1">
          <mxGeometry x="617.5" y="35" width="60" height="30" as="geometry" />
        </mxCell>
        <mxCell id="BBIBPebnaKfFjS6tCGOX-41" value="subject" style="ellipse;whiteSpace=wrap;html=1;" vertex="1" parent="1">
          <mxGeometry x="567.5" y="20" width="50" height="30" as="geometry" />
        </mxCell>
        <mxCell id="BBIBPebnaKfFjS6tCGOX-42" value="name" style="ellipse;whiteSpace=wrap;html=1;" vertex="1" parent="1">
          <mxGeometry x="507.5" y="40" width="60" height="20" as="geometry" />
        </mxCell>
        <mxCell id="BBIBPebnaKfFjS6tCGOX-43" value="&lt;u&gt;id&lt;/u&gt;" style="ellipse;whiteSpace=wrap;html=1;" vertex="1" parent="1">
          <mxGeometry x="477.5" y="70" width="50" height="20" as="geometry" />
        </mxCell>
        <mxCell id="BBIBPebnaKfFjS6tCGOX-44" value="" style="endArrow=none;html=1;rounded=0;exitX=1;exitY=0.5;exitDx=0;exitDy=0;" edge="1" parent="1" source="BBIBPebnaKfFjS6tCGOX-43">
          <mxGeometry width="50" height="50" relative="1" as="geometry">
            <mxPoint x="687.5" y="330" as="sourcePoint" />
            <mxPoint x="567.5" y="120" as="targetPoint" />
          </mxGeometry>
        </mxCell>
        <mxCell id="BBIBPebnaKfFjS6tCGOX-45" value="" style="endArrow=none;html=1;rounded=0;exitX=0.5;exitY=1;exitDx=0;exitDy=0;entryX=0.25;entryY=0;entryDx=0;entryDy=0;" edge="1" parent="1" source="BBIBPebnaKfFjS6tCGOX-42" target="BBIBPebnaKfFjS6tCGOX-37">
          <mxGeometry width="50" height="50" relative="1" as="geometry">
            <mxPoint x="687.5" y="330" as="sourcePoint" />
            <mxPoint x="737.5" y="280" as="targetPoint" />
          </mxGeometry>
        </mxCell>
        <mxCell id="BBIBPebnaKfFjS6tCGOX-46" value="" style="endArrow=none;html=1;rounded=0;exitX=0.5;exitY=0;exitDx=0;exitDy=0;entryX=0.5;entryY=1;entryDx=0;entryDy=0;" edge="1" parent="1" source="BBIBPebnaKfFjS6tCGOX-37" target="BBIBPebnaKfFjS6tCGOX-41">
          <mxGeometry width="50" height="50" relative="1" as="geometry">
            <mxPoint x="687.5" y="330" as="sourcePoint" />
            <mxPoint x="737.5" y="280" as="targetPoint" />
          </mxGeometry>
        </mxCell>
        <mxCell id="BBIBPebnaKfFjS6tCGOX-47" value="" style="endArrow=none;html=1;rounded=0;exitX=0.75;exitY=0;exitDx=0;exitDy=0;entryX=0;entryY=1;entryDx=0;entryDy=0;" edge="1" parent="1" source="BBIBPebnaKfFjS6tCGOX-37" target="BBIBPebnaKfFjS6tCGOX-40">
          <mxGeometry width="50" height="50" relative="1" as="geometry">
            <mxPoint x="687.5" y="330" as="sourcePoint" />
            <mxPoint x="737.5" y="280" as="targetPoint" />
          </mxGeometry>
        </mxCell>
        <mxCell id="BBIBPebnaKfFjS6tCGOX-48" value="" style="endArrow=none;html=1;rounded=0;entryX=0;entryY=1;entryDx=0;entryDy=0;" edge="1" parent="1" target="BBIBPebnaKfFjS6tCGOX-39">
          <mxGeometry width="50" height="50" relative="1" as="geometry">
            <mxPoint x="637.5" y="114" as="sourcePoint" />
            <mxPoint x="737.5" y="280" as="targetPoint" />
          </mxGeometry>
        </mxCell>
        <mxCell id="BBIBPebnaKfFjS6tCGOX-49" value="" style="endArrow=none;html=1;rounded=0;exitX=1;exitY=0.75;exitDx=0;exitDy=0;entryX=0;entryY=1;entryDx=0;entryDy=0;" edge="1" parent="1" source="BBIBPebnaKfFjS6tCGOX-37" target="BBIBPebnaKfFjS6tCGOX-38">
          <mxGeometry width="50" height="50" relative="1" as="geometry">
            <mxPoint x="687.5" y="330" as="sourcePoint" />
            <mxPoint x="737.5" y="280" as="targetPoint" />
          </mxGeometry>
        </mxCell>
        <mxCell id="BBIBPebnaKfFjS6tCGOX-50" value="class" style="rounded=0;whiteSpace=wrap;html=1;" vertex="1" parent="1">
          <mxGeometry x="240" y="150" width="70" height="25" as="geometry" />
        </mxCell>
        <mxCell id="BBIBPebnaKfFjS6tCGOX-51" value="&lt;u&gt;name&lt;/u&gt;" style="ellipse;whiteSpace=wrap;html=1;" vertex="1" parent="1">
          <mxGeometry x="185" y="80" width="55" height="30" as="geometry" />
        </mxCell>
        <mxCell id="BBIBPebnaKfFjS6tCGOX-52" value="location" style="ellipse;whiteSpace=wrap;html=1;" vertex="1" parent="1">
          <mxGeometry x="250" y="102.5" width="50" height="30" as="geometry" />
        </mxCell>
        <mxCell id="BBIBPebnaKfFjS6tCGOX-53" value="floor no" style="ellipse;whiteSpace=wrap;html=1;" vertex="1" parent="1">
          <mxGeometry x="280" y="35" width="60" height="30" as="geometry" />
        </mxCell>
        <mxCell id="BBIBPebnaKfFjS6tCGOX-54" value="building no" style="ellipse;whiteSpace=wrap;html=1;" vertex="1" parent="1">
          <mxGeometry x="210" y="25" width="60" height="40" as="geometry" />
        </mxCell>
        <mxCell id="BBIBPebnaKfFjS6tCGOX-55" value="attached schedule" style="ellipse;whiteSpace=wrap;html=1;" vertex="1" parent="1">
          <mxGeometry x="120" y="120" width="70" height="30" as="geometry" />
        </mxCell>
        <mxCell id="BBIBPebnaKfFjS6tCGOX-56" value="class capacity" style="ellipse;whiteSpace=wrap;html=1;" vertex="1" parent="1">
          <mxGeometry x="320" y="80" width="80" height="40" as="geometry" />
        </mxCell>
        <mxCell id="BBIBPebnaKfFjS6tCGOX-57" value="" style="endArrow=none;html=1;rounded=0;exitX=0.5;exitY=1;exitDx=0;exitDy=0;" edge="1" parent="1" source="BBIBPebnaKfFjS6tCGOX-51">
          <mxGeometry width="50" height="50" relative="1" as="geometry">
            <mxPoint x="400" y="350" as="sourcePoint" />
            <mxPoint x="250" y="150" as="targetPoint" />
          </mxGeometry>
        </mxCell>
        <mxCell id="BBIBPebnaKfFjS6tCGOX-58" value="" style="endArrow=none;html=1;rounded=0;exitX=0.406;exitY=-0.08;exitDx=0;exitDy=0;exitPerimeter=0;entryX=0.5;entryY=1;entryDx=0;entryDy=0;" edge="1" parent="1" source="BBIBPebnaKfFjS6tCGOX-50" target="BBIBPebnaKfFjS6tCGOX-52">
          <mxGeometry width="50" height="50" relative="1" as="geometry">
            <mxPoint x="400" y="350" as="sourcePoint" />
            <mxPoint x="450" y="300" as="targetPoint" />
          </mxGeometry>
        </mxCell>
        <mxCell id="BBIBPebnaKfFjS6tCGOX-59" value="" style="endArrow=none;html=1;rounded=0;exitX=0.863;exitY=0.048;exitDx=0;exitDy=0;exitPerimeter=0;entryX=0;entryY=1;entryDx=0;entryDy=0;" edge="1" parent="1" source="BBIBPebnaKfFjS6tCGOX-50" target="BBIBPebnaKfFjS6tCGOX-56">
          <mxGeometry width="50" height="50" relative="1" as="geometry">
            <mxPoint x="400" y="350" as="sourcePoint" />
            <mxPoint x="450" y="300" as="targetPoint" />
          </mxGeometry>
        </mxCell>
        <mxCell id="BBIBPebnaKfFjS6tCGOX-61" value="" style="endArrow=none;html=1;rounded=0;exitX=0.5;exitY=1;exitDx=0;exitDy=0;entryX=0.5;entryY=0;entryDx=0;entryDy=0;" edge="1" parent="1" source="BBIBPebnaKfFjS6tCGOX-54" target="BBIBPebnaKfFjS6tCGOX-52">
          <mxGeometry width="50" height="50" relative="1" as="geometry">
            <mxPoint x="400" y="350" as="sourcePoint" />
            <mxPoint x="264" y="100" as="targetPoint" />
          </mxGeometry>
        </mxCell>
        <mxCell id="BBIBPebnaKfFjS6tCGOX-62" value="" style="endArrow=none;html=1;rounded=0;exitX=0.5;exitY=0;exitDx=0;exitDy=0;entryX=0.367;entryY=0.913;entryDx=0;entryDy=0;entryPerimeter=0;" edge="1" parent="1" source="BBIBPebnaKfFjS6tCGOX-52" target="BBIBPebnaKfFjS6tCGOX-53">
          <mxGeometry width="50" height="50" relative="1" as="geometry">
            <mxPoint x="400" y="350" as="sourcePoint" />
            <mxPoint x="450" y="300" as="targetPoint" />
          </mxGeometry>
        </mxCell>
        <mxCell id="BBIBPebnaKfFjS6tCGOX-63" value="" style="endArrow=none;html=1;rounded=0;exitX=0.977;exitY=0.853;exitDx=0;exitDy=0;exitPerimeter=0;entryX=0;entryY=0.25;entryDx=0;entryDy=0;" edge="1" parent="1" source="BBIBPebnaKfFjS6tCGOX-55" target="BBIBPebnaKfFjS6tCGOX-50">
          <mxGeometry width="50" height="50" relative="1" as="geometry">
            <mxPoint x="400" y="330" as="sourcePoint" />
            <mxPoint x="450" y="280" as="targetPoint" />
          </mxGeometry>
        </mxCell>
        <mxCell id="BBIBPebnaKfFjS6tCGOX-64" value="has" style="rhombus;whiteSpace=wrap;html=1;" vertex="1" parent="1">
          <mxGeometry x="190" y="290" width="50" height="50" as="geometry" />
        </mxCell>
        <mxCell id="BBIBPebnaKfFjS6tCGOX-65" value="" style="shape=link;html=1;rounded=0;exitX=1;exitY=1;exitDx=0;exitDy=0;entryX=0;entryY=0;entryDx=0;entryDy=0;" edge="1" parent="1" source="BBIBPebnaKfFjS6tCGOX-64" target="BBIBPebnaKfFjS6tCGOX-13">
          <mxGeometry width="100" relative="1" as="geometry">
            <mxPoint x="370" y="300" as="sourcePoint" />
            <mxPoint x="470" y="300" as="targetPoint" />
          </mxGeometry>
        </mxCell>
        <mxCell id="BBIBPebnaKfFjS6tCGOX-66" value="" style="shape=link;html=1;rounded=0;exitX=1;exitY=1;exitDx=0;exitDy=0;entryX=0;entryY=0;entryDx=0;entryDy=0;" edge="1" parent="1" source="BBIBPebnaKfFjS6tCGOX-1" target="BBIBPebnaKfFjS6tCGOX-64">
          <mxGeometry width="100" relative="1" as="geometry">
            <mxPoint x="370" y="300" as="sourcePoint" />
            <mxPoint x="470" y="300" as="targetPoint" />
          </mxGeometry>
        </mxCell>
        <mxCell id="BBIBPebnaKfFjS6tCGOX-67" value="1" style="text;html=1;align=center;verticalAlign=middle;whiteSpace=wrap;rounded=0;" vertex="1" parent="1">
          <mxGeometry x="200" y="270" width="20" height="30" as="geometry" />
        </mxCell>
        <mxCell id="BBIBPebnaKfFjS6tCGOX-68" value="1" style="text;html=1;align=center;verticalAlign=middle;whiteSpace=wrap;rounded=0;" vertex="1" parent="1">
          <mxGeometry x="240" y="310" width="20" height="30" as="geometry" />
        </mxCell>
        <mxCell id="BBIBPebnaKfFjS6tCGOX-71" value="attend" style="rhombus;whiteSpace=wrap;html=1;" vertex="1" parent="1">
          <mxGeometry x="290" y="295" width="60" height="40" as="geometry" />
        </mxCell>
        <mxCell id="BBIBPebnaKfFjS6tCGOX-72" value="" style="shape=link;html=1;rounded=0;exitX=0.5;exitY=1;exitDx=0;exitDy=0;entryX=0.5;entryY=0;entryDx=0;entryDy=0;" edge="1" parent="1" source="BBIBPebnaKfFjS6tCGOX-71" target="BBIBPebnaKfFjS6tCGOX-13">
          <mxGeometry width="100" relative="1" as="geometry">
            <mxPoint x="370" y="300" as="sourcePoint" />
            <mxPoint x="470" y="300" as="targetPoint" />
          </mxGeometry>
        </mxCell>
        <mxCell id="BBIBPebnaKfFjS6tCGOX-75" value="M" style="text;html=1;align=center;verticalAlign=middle;whiteSpace=wrap;rounded=0;" vertex="1" parent="1">
          <mxGeometry x="320" y="330" width="20" height="30" as="geometry" />
        </mxCell>
        <mxCell id="BBIBPebnaKfFjS6tCGOX-76" value="1" style="text;html=1;align=center;verticalAlign=middle;whiteSpace=wrap;rounded=0;" vertex="1" parent="1">
          <mxGeometry x="320" y="260" width="20" height="30" as="geometry" />
        </mxCell>
        <mxCell id="BBIBPebnaKfFjS6tCGOX-78" value="&lt;u&gt;studentid&lt;/u&gt;" style="ellipse;whiteSpace=wrap;html=1;" vertex="1" parent="1">
          <mxGeometry x="-47.5" y="345" width="65" height="20" as="geometry" />
        </mxCell>
        <mxCell id="BBIBPebnaKfFjS6tCGOX-79" value="" style="endArrow=none;html=1;rounded=0;exitX=1;exitY=0.5;exitDx=0;exitDy=0;entryX=0;entryY=0.25;entryDx=0;entryDy=0;" edge="1" parent="1">
          <mxGeometry width="50" height="50" relative="1" as="geometry">
            <mxPoint x="15" y="355" as="sourcePoint" />
            <mxPoint x="60" y="352.5" as="targetPoint" />
          </mxGeometry>
        </mxCell>
        <mxCell id="BBIBPebnaKfFjS6tCGOX-81" value="Medical report" style="shape=ext;margin=3;double=1;whiteSpace=wrap;html=1;align=center;" vertex="1" parent="1">
          <mxGeometry x="55" y="335" width="100" height="40" as="geometry" />
        </mxCell>
        <mxCell id="Lq9RSuHEPr6RFZRs7szK-4" value="" style="shape=link;html=1;rounded=0;exitX=1;exitY=0.5;exitDx=0;exitDy=0;entryX=0;entryY=0.5;entryDx=0;entryDy=0;" edge="1" parent="1" source="BBIBPebnaKfFjS6tCGOX-81">
          <mxGeometry relative="1" as="geometry">
            <mxPoint x="340" y="290" as="sourcePoint" />
            <mxPoint x="180" y="400" as="targetPoint" />
          </mxGeometry>
        </mxCell>
        <mxCell id="Lq9RSuHEPr6RFZRs7szK-5" value="1" style="resizable=0;html=1;whiteSpace=wrap;align=right;verticalAlign=bottom;" connectable="0" vertex="1" parent="Lq9RSuHEPr6RFZRs7szK-4">
          <mxGeometry x="1" relative="1" as="geometry">
            <mxPoint x="5" y="-5" as="offset" />
          </mxGeometry>
        </mxCell>
        <mxCell id="Lq9RSuHEPr6RFZRs7szK-6" value="" style="shape=link;html=1;rounded=0;entryX=1;entryY=0.5;entryDx=0;entryDy=0;" edge="1" parent="1">
          <mxGeometry relative="1" as="geometry">
            <mxPoint x="290" y="400" as="sourcePoint" />
            <mxPoint x="240" y="400" as="targetPoint" />
          </mxGeometry>
        </mxCell>
        <mxCell id="Lq9RSuHEPr6RFZRs7szK-7" value="1" style="resizable=0;html=1;whiteSpace=wrap;align=right;verticalAlign=bottom;" connectable="0" vertex="1" parent="Lq9RSuHEPr6RFZRs7szK-6">
          <mxGeometry x="1" relative="1" as="geometry">
            <mxPoint x="10" as="offset" />
          </mxGeometry>
        </mxCell>
        <mxCell id="Lq9RSuHEPr6RFZRs7szK-8" value="own" style="shape=rhombus;double=1;perimeter=rhombusPerimeter;whiteSpace=wrap;html=1;align=center;" vertex="1" parent="1">
          <mxGeometry x="180" y="380" width="60" height="40" as="geometry" />
        </mxCell>
        <mxCell id="Lq9RSuHEPr6RFZRs7szK-9" value="has" style="shape=rhombus;perimeter=rhombusPerimeter;whiteSpace=wrap;html=1;align=center;" vertex="1" parent="1">
          <mxGeometry x="430" y="390" width="60" height="30" as="geometry" />
        </mxCell>
        <mxCell id="Lq9RSuHEPr6RFZRs7szK-12" value="" style="shape=link;html=1;rounded=0;exitX=1;exitY=0.5;exitDx=0;exitDy=0;entryX=0;entryY=0.5;entryDx=0;entryDy=0;" edge="1" parent="1">
          <mxGeometry relative="1" as="geometry">
            <mxPoint x="360" y="405" as="sourcePoint" />
            <mxPoint x="430" y="405" as="targetPoint" />
          </mxGeometry>
        </mxCell>
        <mxCell id="Lq9RSuHEPr6RFZRs7szK-13" value="N" style="resizable=0;html=1;whiteSpace=wrap;align=right;verticalAlign=bottom;" connectable="0" vertex="1" parent="Lq9RSuHEPr6RFZRs7szK-12">
          <mxGeometry x="1" relative="1" as="geometry" />
        </mxCell>
        <mxCell id="Lq9RSuHEPr6RFZRs7szK-14" value="" style="shape=link;html=1;rounded=0;exitX=0;exitY=0.5;exitDx=0;exitDy=0;entryX=1;entryY=0.5;entryDx=0;entryDy=0;" edge="1" parent="1" source="BBIBPebnaKfFjS6tCGOX-30" target="Lq9RSuHEPr6RFZRs7szK-9">
          <mxGeometry relative="1" as="geometry">
            <mxPoint x="370" y="415" as="sourcePoint" />
            <mxPoint x="490" y="410" as="targetPoint" />
          </mxGeometry>
        </mxCell>
        <mxCell id="Lq9RSuHEPr6RFZRs7szK-15" value="M" style="resizable=0;html=1;whiteSpace=wrap;align=right;verticalAlign=bottom;" connectable="0" vertex="1" parent="Lq9RSuHEPr6RFZRs7szK-14">
          <mxGeometry x="1" relative="1" as="geometry">
            <mxPoint y="-5" as="offset" />
          </mxGeometry>
        </mxCell>
        <mxCell id="Lq9RSuHEPr6RFZRs7szK-16" value="senior" style="shape=rhombus;perimeter=rhombusPerimeter;whiteSpace=wrap;html=1;align=center;" vertex="1" parent="1">
          <mxGeometry x="577.5" y="160" width="50" height="40" as="geometry" />
        </mxCell>
        <mxCell id="Lq9RSuHEPr6RFZRs7szK-17" value="" style="shape=link;html=1;rounded=0;exitX=0.25;exitY=1;exitDx=0;exitDy=0;entryX=0;entryY=0.5;entryDx=0;entryDy=0;" edge="1" parent="1" source="BBIBPebnaKfFjS6tCGOX-37" target="Lq9RSuHEPr6RFZRs7szK-16">
          <mxGeometry relative="1" as="geometry">
            <mxPoint x="340" y="290" as="sourcePoint" />
            <mxPoint x="500" y="290" as="targetPoint" />
          </mxGeometry>
        </mxCell>
        <mxCell id="Lq9RSuHEPr6RFZRs7szK-18" value="1" style="resizable=0;html=1;whiteSpace=wrap;align=right;verticalAlign=bottom;" connectable="0" vertex="1" parent="Lq9RSuHEPr6RFZRs7szK-17">
          <mxGeometry x="1" relative="1" as="geometry" />
        </mxCell>
        <mxCell id="Lq9RSuHEPr6RFZRs7szK-21" value="" style="endArrow=none;html=1;rounded=0;entryX=1;entryY=0.5;entryDx=0;entryDy=0;exitX=0.75;exitY=1;exitDx=0;exitDy=0;" edge="1" parent="1" source="BBIBPebnaKfFjS6tCGOX-37" target="Lq9RSuHEPr6RFZRs7szK-16">
          <mxGeometry width="50" height="50" relative="1" as="geometry">
            <mxPoint x="400" y="310" as="sourcePoint" />
            <mxPoint x="450" y="260" as="targetPoint" />
          </mxGeometry>
        </mxCell>
        <mxCell id="Lq9RSuHEPr6RFZRs7szK-22" value="M" style="text;html=1;align=center;verticalAlign=middle;whiteSpace=wrap;rounded=0;" vertex="1" parent="1">
          <mxGeometry x="635" y="145" width="10" height="30" as="geometry" />
        </mxCell>
        <mxCell id="Lq9RSuHEPr6RFZRs7szK-24" value="" style="shape=link;html=1;rounded=0;exitX=0.25;exitY=1;exitDx=0;exitDy=0;entryX=0.5;entryY=0;entryDx=0;entryDy=0;" edge="1" parent="1" source="BBIBPebnaKfFjS6tCGOX-50" target="BBIBPebnaKfFjS6tCGOX-71">
          <mxGeometry width="100" relative="1" as="geometry">
            <mxPoint x="370" y="290" as="sourcePoint" />
            <mxPoint x="470" y="290" as="targetPoint" />
          </mxGeometry>
        </mxCell>
        <mxCell id="Lq9RSuHEPr6RFZRs7szK-26" value="teach" style="rhombus;whiteSpace=wrap;html=1;" vertex="1" parent="1">
          <mxGeometry x="395" y="145" width="60" height="50" as="geometry" />
        </mxCell>
        <mxCell id="Lq9RSuHEPr6RFZRs7szK-27" value="" style="shape=link;html=1;rounded=0;exitX=1;exitY=0.5;exitDx=0;exitDy=0;entryX=0;entryY=0.5;entryDx=0;entryDy=0;" edge="1" parent="1" source="BBIBPebnaKfFjS6tCGOX-50" target="Lq9RSuHEPr6RFZRs7szK-26">
          <mxGeometry width="100" relative="1" as="geometry">
            <mxPoint x="370" y="290" as="sourcePoint" />
            <mxPoint x="470" y="290" as="targetPoint" />
          </mxGeometry>
        </mxCell>
        <mxCell id="Lq9RSuHEPr6RFZRs7szK-28" value="" style="endArrow=none;html=1;rounded=0;exitX=1;exitY=0.5;exitDx=0;exitDy=0;entryX=0;entryY=0.75;entryDx=0;entryDy=0;" edge="1" parent="1" source="Lq9RSuHEPr6RFZRs7szK-26" target="BBIBPebnaKfFjS6tCGOX-37">
          <mxGeometry width="50" height="50" relative="1" as="geometry">
            <mxPoint x="400" y="310" as="sourcePoint" />
            <mxPoint x="450" y="260" as="targetPoint" />
          </mxGeometry>
        </mxCell>
        <mxCell id="Lq9RSuHEPr6RFZRs7szK-29" value="M" style="text;html=1;align=center;verticalAlign=middle;whiteSpace=wrap;rounded=0;" vertex="1" parent="1">
          <mxGeometry x="455" y="140" width="10" height="30" as="geometry" />
        </mxCell>
        <mxCell id="Lq9RSuHEPr6RFZRs7szK-30" value="N" style="text;html=1;align=center;verticalAlign=middle;whiteSpace=wrap;rounded=0;" vertex="1" parent="1">
          <mxGeometry x="385" y="140" width="10" height="30" as="geometry" />
        </mxCell>
        <mxCell id="Lq9RSuHEPr6RFZRs7szK-124" value="&lt;div&gt;&lt;font style=&quot;font-size: 18px;&quot;&gt;&lt;br&gt;&lt;/font&gt;&lt;/div&gt;&lt;font style=&quot;font-size: 18px;&quot;&gt;&lt;div&gt;&lt;font style=&quot;font-size: 18px;&quot;&gt;&lt;br&gt;&lt;/font&gt;&lt;/div&gt;&lt;div&gt;&lt;font style=&quot;font-size: 18px;&quot;&gt;&lt;br&gt;&lt;/font&gt;&lt;/div&gt;&lt;div&gt;&lt;font style=&quot;font-size: 18px;&quot;&gt;&lt;br&gt;&lt;/font&gt;&lt;/div&gt;1-Student(&lt;u&gt;serial no,&lt;font color=&quot;#cdda10&quot;&gt;&lt;b&gt;appid,classid&lt;/b&gt;&lt;/font&gt;&lt;/u&gt;, fname,gender,date of birth, certification,email,sibiling discount)&lt;/font&gt;&lt;div&gt;&lt;font style=&quot;font-size: 18px;&quot;&gt;2- medical-report(&lt;u&gt;studentid,weight&lt;/u&gt;,length)&lt;/font&gt;&lt;/div&gt;&lt;div&gt;&lt;font style=&quot;font-size: 18px;&quot;&gt;3-&lt;/font&gt;&lt;span style=&quot;font-size: 18px; background-color: initial;&quot;&gt;disease-info(&lt;u&gt;studentid,weight,disease&lt;/u&gt;)&lt;/span&gt;&lt;/div&gt;&lt;div&gt;&lt;span style=&quot;font-size: 18px; background-color: initial;&quot;&gt;4-application(serial no, division)&lt;/span&gt;&lt;/div&gt;&lt;div&gt;&lt;span style=&quot;font-size: 18px; background-color: initial;&quot;&gt;5-class(&lt;u&gt;name&lt;/u&gt;,building no,loor no,class capacity, attached schedule)&lt;/span&gt;&lt;/div&gt;&lt;div&gt;&lt;span style=&quot;font-size: 18px; background-color: initial;&quot;&gt;6-teacher(&lt;u&gt;id,&lt;/u&gt;&lt;font color=&quot;#e6d414&quot;&gt;&lt;b&gt;seniorid&lt;/b&gt;&lt;/font&gt;,name,subject,phone no,email,salary)&lt;/span&gt;&lt;/div&gt;&lt;div&gt;&lt;span style=&quot;font-size: 18px; background-color: initial;&quot;&gt;7- teach-table(&lt;u&gt;classid,teacherid&lt;/u&gt;)&lt;/span&gt;&lt;/div&gt;&lt;div&gt;&lt;span style=&quot;font-size: 18px; background-color: initial;&quot;&gt;8-parent(&lt;u&gt;parentid&lt;/u&gt;,name,relationship)&lt;/span&gt;&lt;/div&gt;&lt;div&gt;&lt;span style=&quot;font-size: 18px; background-color: initial;&quot;&gt;9-student-parent(&lt;u&gt;studentid,parentid&lt;/u&gt;)&lt;/span&gt;&lt;/div&gt;" style="text;html=1;align=left;verticalAlign=middle;whiteSpace=wrap;rounded=0;" vertex="1" parent="1">
          <mxGeometry x="22" y="620" width="815" height="30" as="geometry" />
        </mxCell>
        <mxCell id="Lq9RSuHEPr6RFZRs7szK-125" value="disease info" style="ellipse;shape=doubleEllipse;margin=3;whiteSpace=wrap;html=1;align=center;" vertex="1" parent="1">
          <mxGeometry x="90" y="410" width="100" height="40" as="geometry" />
        </mxCell>
      </root>
    </mxGraphModel>
  </diagram>
</mxfile>
